<svg id="Layer_1" data-name="Layer 1" xmlns="http://www.w3.org/2000/svg" viewBox="0 0 269.75 90.72"><defs><style>.cls-1{fill:#ccdce6;}</style></defs><title>clond2</title><path id="topcloud" class="cls-1" d="M518,336.87a10.5,10.5,0,0,0-3.83.73c-2.22-20-15.82-35.32-32.27-35.32-7.55,0-14.5,3.25-20,8.69a20.66,20.66,0,0,0-12.56-4.34,20,20,0,0,0-5.17.69,27.73,27.73,0,0,0,.47-5.08c0-13.29-9.31-24.06-20.78-24.06a19.33,19.33,0,0,0-14.4,6.72c-5.53-14-17.57-23.78-31.54-23.78-17,0-31.09,14.37-34.16,33.37a18.3,18.3,0,0,0-8-1.85c-11.47,0-20.78,10.77-20.78,24.06a28.48,28.48,0,0,0,.17,3,20.91,20.91,0,0,0-14-5.52c-10.74,0-19.76,8.56-22.25,20.11a10.6,10.6,0,0,0-4.73-1.14c-7.17,0-13,7.36-13,16.44a20.77,20.77,0,0,0,.13,2.21H531C530.36,343.44,524.81,336.87,518,336.87Z" transform="translate(-261.21 -261.1)"/></svg>