<svg id="Layer_1" data-name="Layer 1" xmlns="http://www.w3.org/2000/svg" viewBox="0 0 385.25 93.38"><defs><style>.cls-1{fill:#ccdce6;}</style></defs><title>clond3</title><path id="rightbuttoncloud" class="cls-1" d="M576.17,339.79a10.7,10.7,0,0,0-2.31.27c-2.63-5.25-7.25-8.75-12.53-8.75a11.94,11.94,0,0,0-3.77.64c-4.23-7.6-11.59-12.64-20-12.64a20.75,20.75,0,0,0-7,1.21c-4.12-20.76-19.87-36.21-38.69-36.21-14.47,0-27.14,9.15-34.09,22.83l-.48-.41c-3.94-8.86-11.92-14.92-21.12-14.92-9,0-16.89,5.84-20.9,14.44-.3.25-.6.49-.89.74a21.74,21.74,0,0,0-14.87-6.06,20.73,20.73,0,0,0-3.56.31,40.28,40.28,0,0,0-7-17c-6.78-14.44-19.81-24.22-34.77-24.22-15.82,0-29.48,10.93-35.88,26.75a21.21,21.21,0,0,0-11.9-3.71c-11.83,0-21.64,10-23.45,23.13-.42.91-.8,1.84-1.13,2.81a31.82,31.82,0,0,0-8.66-1.2c-.46,0-.92,0-1.38,0s-.85,0-1.27,0a23.65,23.65,0,0,0-15,5.36,32,32,0,0,0-9.06,9.21,12.67,12.67,0,0,0-8.15-3.1c-6.15,0-11.42,4.73-13.68,11.48a12.13,12.13,0,0,0-5.62-1.4c-8.2,0-14.84,8.41-14.84,18.79a23.36,23.36,0,0,0,.6,5.25H589.4C588.14,345.64,582.69,339.79,576.17,339.79Z" transform="translate(-204.15 -260.05)"/></svg>