<?xml version="1.0" encoding="utf-8"?>
<!-- Generator: Adobe Illustrator 21.0.0, SVG Export Plug-In . SVG Version: 6.00 Build 0)  -->
<svg version="1.1" id="Layer_1" xmlns="http://www.w3.org/2000/svg" xmlns:xlink="http://www.w3.org/1999/xlink" x="0px" y="0px"
	 viewBox="0 0 792 612" style="enable-background:new 0 0 792 612;" xml:space="preserve">
<style type="text/css">
	.st0{fill:#CCDCE6;}
</style>
<path id="righttopcloud" class="st0" d="M616.7,343.2c-2.6,0-5,0.6-7.3,1.6c-3.5-13.8-14.5-23.8-27.5-23.8c-4.5,0-8.8,1.2-12.7,3.4
	c-1.4-24.8-19.2-44.5-41-44.5c-17.2,0-31.9,12.2-38,29.6c-6.9-6-15.4-9.5-24.7-9.5c-16.4,0-30.5,11.1-37.1,27.1
	c-2.7-2.5-5.8-4.5-9.3-5.8c0.5-3.3,0.8-6.8,0.8-10.3c0-31.4-21.5-56.8-48-56.8c-20.4,0-37.8,15-44.8,36.2c-1.3,1.8-2.5,3.7-3.6,5.6
	c-5.3-6.8-12.9-11.2-21.4-11.2c-15.9,0-28.7,14.9-28.7,33.2c0,0.6,0,1.3,0,1.9c-0.4-0.1-0.8-0.1-1.2-0.2c-5.1-5.5-11.9-8.8-19.5-8.8
	c-12.8,0-23.6,9.7-27.3,23.1c-3.7-2-7.9-3.2-12.3-3.2c-9.7,0-18.3,5.6-23.5,14.1c-3.4-3.2-7.8-5.1-12.5-5.1
	c-10,0-18.3,8.6-19.6,19.6h478C633.3,350.2,625.7,343.2,616.7,343.2z"/>
</svg>
