<?xml version="1.0" encoding="utf-8"?>
<!-- Generator: Adobe Illustrator 21.0.2, SVG Export Plug-In . SVG Version: 6.00 Build 0)  -->
<svg version="1.1" id="Layer_1" xmlns="http://www.w3.org/2000/svg" xmlns:xlink="http://www.w3.org/1999/xlink" x="0px" y="0px"
	 viewBox="0 0 499.2 499.2" style="enable-background:new 0 0 499.2 499.2;" xml:space="preserve">
<style type="text/css">
	.st0{display:none;fill:#FF0606;}
	.st1{opacity:0.76;fill:#F9F8F7;stroke:#EDE5DD;stroke-miterlimit:10;enable-background:new    ;}
	.st2{fill:none;}
	.st3{font-family:'HannotateSC-W5-GBpc-EUC-H';}
	.st4{font-size:18px;}
	.st5{font-size:25.8366px;}
</style>
<path class="st0" d="M209.1,64h81.6c41.6,0,78.4,30.4,78.4,72v184.8c0,41.6-36.8,78.4-78.4,78.4h-86.4c-41.6,0-75.2-33.6-75.2-75.2"
	/>
<path class="st1" d="M424.2,205H54.1c-6.5,0-11.9-5.1-11.9-11.3V18.7c0-6.2,5.3-11.3,11.9-11.3h370.2c6.5,0,11.9,5.1,11.9,11.3
	v175.1C436.1,199.9,430.8,205,424.2,205z"/>
<rect x="78.6" y="123.1" class="st2" width="357.5" height="218.9"/>
<text transform="matrix(1 0 0 1 78.5695 251.3984)" class="st3 st4">                                  </text>
<text transform="matrix(1 0 0 1 92.5695 174.9997)" class="st3 st4">                              (Click second star）</text>
<rect x="49" y="17" class="st2" width="381" height="183"/>
<text transform="matrix(1.0445 0 0 1 71.8418 47.0859)"><tspan x="0" y="0" class="st3 st5">Lantern Festival is called as</tspan><tspan x="0" y="31" class="st3 st5">元宵节. The most important </tspan><tspan x="0" y="62" class="st3 st5">and prevalent customs are </tspan><tspan x="0" y="93" class="st3 st5">enjoying lanterns.  </tspan></text>
</svg>
