<svg xmlns="http://www.w3.org/2000/svg" viewBox="0 0 703.35 197.77"><defs><style>.cls-1{isolation:isolate;}.cls-2,.cls-3,.cls-7,.cls-9{fill:none;stroke-miterlimit:10;stroke-width:4px;}.cls-2{stroke:#002552;}.cls-3{stroke:#2d3e50;}.cls-4{fill:#41b19c;}.cls-5{fill:#cfd1d2;mix-blend-mode:multiply;}.cls-6{fill:#95a4a4;}.cls-7{stroke:#35495e;}.cls-8{fill:#efc319;}.cls-9{stroke:#eceff0;}.cls-10{fill:#e74d3d;}.cls-11{fill:#56bc80;}</style></defs><title>lantern</title><g class="cls-1"><g id="Layer_1" data-name="Layer 1"><path class="cls-2" d="M186.3,226.28s4.95-47.22,13.95-43.56S222,225.92,222,225.92" transform="translate(-37.65 -165.23)"/><line class="cls-3" x1="191.34" y1="164.68" x2="166.45" y2="49.02"/><polygon class="cls-4" points="130.04 61.1 205.78 44.96 219.82 48.84 208.61 58.1 132.87 74.23 117.69 70.6 130.04 61.1"/><polygon class="cls-5" points="132.87 74.23 208.61 58.1 219.82 48.84 117.69 70.6 132.87 74.23"/><polygon class="cls-4" points="132.87 74.23 208.61 58.1 226.08 61.24 214.88 70.49 132.25 88.1 117.07 84.47 132.87 74.23"/><polygon class="cls-5" points="132.25 88.1 214.88 70.49 226.08 61.24 117.07 84.47 132.25 88.1"/><polygon class="cls-4" points="132.01 88.15 214.88 70.49 232.35 73.64 221.14 82.89 131.64 101.96 116.45 98.33 132.01 88.15"/><polygon class="cls-5" points="131.64 101.96 221.14 82.89 232.35 73.64 116.45 98.33 131.64 101.96"/><polygon class="cls-4" points="131.64 101.96 221.14 82.89 238.62 86.03 227.41 95.29 131.02 115.83 115.84 112.2 131.64 101.96"/><polygon class="cls-5" points="131.02 115.83 227.41 95.29 238.62 86.03 115.84 112.2 131.02 115.83"/><polygon class="cls-4" points="131.02 115.83 227.41 95.29 236.86 100.14 225.65 109.4 138.43 127.98 123.25 124.35 131.02 115.83"/><polygon class="cls-5" points="138.43 127.98 225.65 109.4 236.86 100.14 123.25 124.35 138.43 127.98"/><polygon class="cls-4" points="138.43 127.98 225.65 109.4 237.39 113.77 226.18 123.02 143.56 140.63 128.37 136.99 138.43 127.98"/><polygon class="cls-5" points="143.56 140.63 226.18 123.02 237.39 113.77 128.37 136.99 143.56 140.63"/><polygon class="cls-4" points="143.56 140.63 226.18 123.02 236.77 127.63 225.56 136.89 149.82 153.02 134.64 149.39 143.56 140.63"/><polygon class="cls-5" points="149.82 153.02 225.56 136.89 236.77 127.63 134.64 149.39 149.82 153.02"/><path class="cls-3" d="M231,339.22a2.94,2.94,0,1,0,2.2-3.71A3.07,3.07,0,0,0,231,339.22Z" transform="translate(-37.65 -165.23)"/><path class="cls-3" d="M225.26,340.44a2.94,2.94,0,1,0,2.2-3.71A3.07,3.07,0,0,0,225.26,340.44Z" transform="translate(-37.65 -165.23)"/><path class="cls-3" d="M226.79,333.63a2.94,2.94,0,1,0,2.2-3.71A3.07,3.07,0,0,0,226.79,333.63Z" transform="translate(-37.65 -165.23)"/><path class="cls-3" d="M231.93,357.52a2.94,2.94,0,1,0,2.2-3.71A3.07,3.07,0,0,0,231.93,357.52Z" transform="translate(-37.65 -165.23)"/><path class="cls-3" d="M233.66,351.63a2.94,2.94,0,1,0,2.2-3.71A3.07,3.07,0,0,0,233.66,351.63Z" transform="translate(-37.65 -165.23)"/><path class="cls-3" d="M227.93,352.85a2.94,2.94,0,1,0,2.2-3.71A3.07,3.07,0,0,0,227.93,352.85Z" transform="translate(-37.65 -165.23)"/><path class="cls-3" d="M238.07,344.2a2.94,2.94,0,1,0,2.2-3.71A3.07,3.07,0,0,0,238.07,344.2Z" transform="translate(-37.65 -165.23)"/><path class="cls-3" d="M232.33,345.42a2.94,2.94,0,1,0,2.2-3.71A3.07,3.07,0,0,0,232.33,345.42Z" transform="translate(-37.65 -165.23)"/><path class="cls-3" d="M226.59,346.65a2.94,2.94,0,1,0,2.2-3.71A3.07,3.07,0,0,0,226.59,346.65Z" transform="translate(-37.65 -165.23)"/><path class="cls-3" d="M220.85,347.87a2.94,2.94,0,1,0,2.2-3.71A3.07,3.07,0,0,0,220.85,347.87Z" transform="translate(-37.65 -165.23)"/><polygon class="cls-6" points="129.06 53.02 204.07 37.04 205.78 44.96 130.76 60.95 129.06 53.02"/><polygon class="cls-6" points="150.54 152.87 225.56 136.89 227.27 144.81 152.25 160.8 150.54 152.87"/><path class="cls-2" d="M586.5,226.33s-4.6-48.75-13.86-45.81S551,223.17,551,223.17" transform="translate(-37.65 -165.23)"/><line class="cls-7" x1="508.52" y1="165.5" x2="531.09" y2="49.36"/><path class="cls-7" d="M544.35,340.07a2.94,2.94,0,1,1-2.28-3.67A3.07,3.07,0,0,1,544.35,340.07Z" transform="translate(-37.65 -165.23)"/><path class="cls-7" d="M550.11,341.18a2.94,2.94,0,1,1-2.27-3.67A3.07,3.07,0,0,1,550.11,341.18Z" transform="translate(-37.65 -165.23)"/><path class="cls-7" d="M548.44,334.4a2.94,2.94,0,1,1-2.28-3.67A3.07,3.07,0,0,1,548.44,334.4Z" transform="translate(-37.65 -165.23)"/><path class="cls-7" d="M543.78,358.39a2.94,2.94,0,1,1-2.28-3.67A3.07,3.07,0,0,1,543.78,358.39Z" transform="translate(-37.65 -165.23)"/><path class="cls-7" d="M541.93,352.53a2.94,2.94,0,1,1-2.28-3.67A3.07,3.07,0,0,1,541.93,352.53Z" transform="translate(-37.65 -165.23)"/><path class="cls-7" d="M547.69,353.64a2.94,2.94,0,1,1-2.28-3.67A3.07,3.07,0,0,1,547.69,353.64Z" transform="translate(-37.65 -165.23)"/><path class="cls-7" d="M537.38,345.2a2.94,2.94,0,1,1-2.28-3.67A3.07,3.07,0,0,1,537.38,345.2Z" transform="translate(-37.65 -165.23)"/><path class="cls-7" d="M543.14,346.3a2.94,2.94,0,1,1-2.27-3.67A3.07,3.07,0,0,1,543.14,346.3Z" transform="translate(-37.65 -165.23)"/><path class="cls-7" d="M548.9,347.41a2.94,2.94,0,1,1-2.28-3.67A3.07,3.07,0,0,1,548.9,347.41Z" transform="translate(-37.65 -165.23)"/><path class="cls-7" d="M554.66,348.52a2.94,2.94,0,1,1-2.28-3.67A3.07,3.07,0,0,1,554.66,348.52Z" transform="translate(-37.65 -165.23)"/><polygon class="cls-8" points="567.73 60.72 491.68 46.09 477.73 50.24 489.12 59.27 565.16 73.91 580.27 69.98 567.73 60.72"/><polygon class="cls-5" points="565.16 73.91 489.12 59.27 477.73 50.24 580.27 69.98 565.16 73.91"/><polygon class="cls-8" points="565.16 73.91 489.12 59.27 471.71 62.76 483.1 71.8 566.06 87.76 581.16 83.83 565.16 73.91"/><polygon class="cls-5" points="566.06 87.76 483.1 71.8 471.71 62.76 581.16 83.83 566.06 87.76"/><polygon class="cls-8" points="566.3 87.81 483.1 71.8 465.69 75.28 477.08 84.31 566.95 101.61 582.06 97.68 566.3 87.81"/><polygon class="cls-5" points="566.95 101.61 477.08 84.31 465.69 75.28 582.06 97.68 566.95 101.61"/><polygon class="cls-8" points="566.95 101.61 477.08 84.31 459.67 87.8 471.06 96.83 567.85 115.46 582.95 111.53 566.95 101.61"/><polygon class="cls-5" points="567.85 115.46 471.06 96.83 459.67 87.8 582.95 111.53 567.85 115.46"/><polygon class="cls-8" points="567.85 115.46 471.06 96.83 461.71 101.88 473.11 110.91 560.67 127.76 575.78 123.83 567.85 115.46"/><polygon class="cls-5" points="560.67 127.76 473.11 110.91 461.71 101.88 575.78 123.83 560.67 127.76"/><polygon class="cls-8" points="560.67 127.76 473.11 110.91 461.46 115.5 472.85 124.53 555.81 140.5 570.91 136.57 560.67 127.76"/><polygon class="cls-5" points="555.81 140.5 472.85 124.53 461.46 115.5 570.91 136.57 555.81 140.5"/><polygon class="cls-8" points="555.81 140.5 472.85 124.53 462.35 129.35 473.74 138.38 549.79 153.02 564.9 149.09 555.81 140.5"/><polygon class="cls-5" points="549.79 153.02 473.74 138.38 462.35 129.35 564.9 149.09 549.79 153.02"/><polygon class="cls-6" points="568.55 52.62 493.23 38.13 491.68 46.09 567 60.58 568.55 52.62"/><polygon class="cls-6" points="549.07 152.88 473.74 138.38 472.2 146.35 547.52 160.84 549.07 152.88"/><path class="cls-2" d="M77.43,211.32s8.5-46.91,17.76-44S113,208.17,113,208.17" transform="translate(-37.65 -165.23)"/><line class="cls-9" x1="44.47" y1="125.99" x2="54.65" y2="31.34"/><polygon class="cls-10" points="84.8 37.97 22.82 31.38 11.92 35.65 21.67 42.12 83.64 48.72 95.49 44.55 84.8 37.97"/><polygon class="cls-5" points="83.64 48.72 21.67 42.12 11.92 35.65 95.49 44.55 83.64 48.72"/><polygon class="cls-10" points="83.64 48.72 21.67 42.12 7.95 46.09 17.7 52.57 85.31 59.77 97.15 55.59 83.64 48.72"/><polygon class="cls-5" points="85.31 59.77 17.7 52.57 7.95 46.09 97.15 55.59 85.31 59.77"/><polygon class="cls-10" points="85.5 59.78 17.7 52.57 3.97 56.54 13.72 63.01 86.97 70.81 98.81 66.64 85.5 59.78"/><polygon class="cls-5" points="86.97 70.81 13.72 63.01 3.97 56.54 98.81 66.64 86.97 70.81"/><polygon class="cls-10" points="86.97 70.81 13.72 63.01 0 66.99 9.75 73.46 88.63 81.86 100.48 77.68 86.97 70.81"/><polygon class="cls-5" points="88.63 81.86 9.75 73.46 0 66.99 100.48 77.68 88.63 81.86"/><polygon class="cls-10" points="88.63 81.86 9.75 73.46 2.6 78.13 12.35 84.61 83.72 92.2 95.56 88.03 88.63 81.86"/><polygon class="cls-5" points="83.72 92.2 12.35 84.61 2.6 78.13 95.56 88.03 83.72 92.2"/><polygon class="cls-10" points="83.72 92.2 12.35 84.61 3.32 89.08 13.07 95.55 80.69 102.75 92.53 98.57 83.72 92.2"/><polygon class="cls-5" points="80.69 102.75 13.07 95.55 3.32 89.08 92.53 98.57 80.69 102.75"/><polygon class="cls-10" points="80.69 102.75 13.07 95.55 4.99 100.12 14.74 106.59 76.71 113.19 88.56 109.02 80.69 102.75"/><polygon class="cls-5" points="76.71 113.19 14.74 106.59 4.99 100.12 88.56 109.02 76.71 113.19"/><ellipse class="cls-9" cx="78.95" cy="298.58" rx="2.55" ry="2.36" transform="translate(-263.97 180.22) rotate(-83.92)"/><ellipse class="cls-9" cx="83.65" cy="299.08" rx="2.55" ry="2.36" transform="translate(-260.27 185.32) rotate(-83.91)"/><ellipse class="cls-9" cx="81.85" cy="293.76" rx="2.55" ry="2.36" transform="translate(-256.57 178.85) rotate(-83.93)"/><ellipse class="cls-9" cx="79.75" cy="313.31" rx="2.55" ry="2.36" transform="translate(-277.89 194.25) rotate(-83.93)"/><ellipse class="cls-9" cx="77.86" cy="308.74" rx="2.55" ry="2.36" transform="translate(-275.04 188.2) rotate(-83.91)"/><ellipse class="cls-9" cx="82.56" cy="309.24" rx="2.55" ry="2.36" transform="translate(-271.33 193.4) rotate(-83.93)"/><ellipse class="cls-9" cx="73.71" cy="303.16" rx="2.55" ry="2.36" transform="translate(-273.21 179.09) rotate(-83.91)"/><ellipse class="cls-9" cx="78.41" cy="303.66" rx="2.55" ry="2.36" transform="translate(-269.5 184.28) rotate(-83.93)"/><ellipse class="cls-9" cx="83.1" cy="304.16" rx="2.55" ry="2.36" transform="translate(-265.79 189.4) rotate(-83.93)"/><ellipse class="cls-9" cx="87.8" cy="304.66" rx="2.55" ry="2.36" transform="translate(-262.09 194.52) rotate(-83.93)"/><rect class="cls-6" x="88.26" y="165.76" width="6.53" height="61.74" transform="translate(-151.35 101.59) rotate(-83.92)"/><polygon class="cls-6" points="76.13 113.13 14.74 106.59 14.04 113.08 75.43 119.62 76.13 113.13"/><path class="cls-2" d="M667.08,213.26s4.6-48.75,13.86-45.81,21.67,42.65,21.67,42.65" transform="translate(-37.65 -165.23)"/><line class="cls-9" x1="660.17" y1="129.15" x2="647.94" y2="34.75"/><ellipse class="cls-9" cx="696.47" cy="302.28" rx="2.36" ry="2.55" transform="matrix(0.99, -0.13, 0.13, 0.99, -70.45, -74.17)"/><ellipse class="cls-9" cx="701.15" cy="301.68" rx="2.36" ry="2.55" transform="translate(-70.32 -73.65) rotate(-7.3)"/><ellipse class="cls-9" cx="698.15" cy="296.92" rx="2.36" ry="2.55" transform="translate(-69.78 -73.91) rotate(-7.32)"/><ellipse class="cls-9" cx="700.68" cy="316.42" rx="2.36" ry="2.55" transform="translate(-72.3 -73.25) rotate(-7.33)"/><ellipse class="cls-9" cx="697.78" cy="312.41" rx="2.36" ry="2.55" transform="translate(-71.7 -74.01) rotate(-7.3)"/><ellipse class="cls-9" cx="702.46" cy="311.81" rx="2.36" ry="2.55" transform="translate(-71.65 -73.22) rotate(-7.32)"/><ellipse class="cls-9" cx="692.44" cy="307.95" rx="2.36" ry="2.55" transform="matrix(0.99, -0.13, 0.13, 0.99, -71.18, -74.71)"/><ellipse class="cls-9" cx="697.12" cy="307.35" rx="2.36" ry="2.55" transform="translate(-71.11 -73.98) rotate(-7.31)"/><ellipse class="cls-9" cx="701.81" cy="306.75" rx="2.36" ry="2.55" transform="translate(-71.03 -73.26) rotate(-7.32)"/><ellipse class="cls-9" cx="706.49" cy="306.14" rx="2.36" ry="2.55" transform="translate(-70.89 -72.76) rotate(-7.32)"/><polygon class="cls-11" points="678.82 34.22 617 42.15 607.39 48.83 618.39 52.87 680.21 44.94 690.75 38.13 678.82 34.22"/><polygon class="cls-5" points="680.21 44.94 618.39 52.87 607.39 48.83 690.75 38.13 680.21 44.94"/><polygon class="cls-11" points="680.21 44.94 618.39 52.87 605.97 59.91 616.97 63.95 684.4 55.29 694.95 48.49 680.21 44.94"/><polygon class="cls-5" points="684.4 55.29 616.97 63.95 605.97 59.91 694.95 48.49 684.4 55.29"/><polygon class="cls-11" points="684.6 55.27 616.97 63.95 604.55 70.99 615.54 75.03 688.6 65.65 699.15 58.85 684.6 55.27"/><polygon class="cls-5" points="688.6 65.65 615.54 75.03 604.55 70.99 699.15 58.85 688.6 65.65"/><polygon class="cls-11" points="688.6 65.65 615.54 75.03 603.13 82.07 614.13 86.11 692.8 76.01 703.35 69.21 688.6 65.65"/><polygon class="cls-5" points="692.8 76.01 614.13 86.11 603.13 82.07 703.35 69.21 692.8 76.01"/><polygon class="cls-11" points="692.8 76.01 614.13 86.11 608.26 92.31 619.26 96.34 690.44 87.21 700.99 80.41 692.8 76.01"/><polygon class="cls-5" points="690.44 87.21 619.26 96.34 608.26 92.31 700.99 80.41 690.44 87.21"/><polygon class="cls-11" points="690.44 87.21 619.26 96.34 611.53 102.78 622.52 106.82 689.96 98.17 700.5 91.36 690.44 87.21"/><polygon class="cls-5" points="689.96 98.17 622.52 106.82 611.53 102.78 700.5 91.36 689.96 98.17"/><polygon class="cls-11" points="689.96 98.17 622.52 106.82 615.73 113.14 626.72 117.18 688.54 109.25 699.09 102.44 689.96 98.17"/><polygon class="cls-5" points="688.54 109.25 626.72 117.18 615.73 113.14 699.09 102.44 688.54 109.25"/><polygon class="cls-6" points="677.39 27.82 616.16 35.68 617 42.15 678.23 34.29 677.39 27.82"/><polygon class="cls-6" points="687.95 109.32 626.72 117.18 627.56 123.65 688.79 115.79 687.95 109.32"/></g></g></svg>