<?xml version="1.0" encoding="utf-8"?>
<!-- Generator: Adobe Illustrator 21.0.2, SVG Export Plug-In . SVG Version: 6.00 Build 0)  -->
<svg version="1.1" id="Layer_1" xmlns="http://www.w3.org/2000/svg" xmlns:xlink="http://www.w3.org/1999/xlink" x="0px" y="0px"
	 viewBox="0 0 1745.8 768" style="enable-background:new 0 0 1745.8 768;" xml:space="preserve">
<style type="text/css">
	.st0{fill:#015184;}
	.st1{fill:none;stroke:#002552;stroke-width:4;stroke-miterlimit:10;}
	.st2{fill:none;stroke:#ECEFF0;stroke-width:4;stroke-miterlimit:10;}
	.st3{fill:#E74D3D;}
	.st4{fill:#CFD1D2;}
	.st5{fill:#95A4A4;}
	.st6{fill:none;stroke:#2D3E50;stroke-width:4;stroke-miterlimit:10;}
	.st7{fill:#41B19C;}
	.st8{fill:#56BC80;}
</style>
<rect id="background" x="0.6" y="1.9" class="st0" width="1744.6" height="768"/>
<path id="line" class="st1" d="M0.5,48c0,0,664.4,165,1745,8.8"/>
<g id="Rlantern1">
	<path class="st1" d="M112.8,154.1c0,0,15-81.5,29.9-76.1s27.8,71.5,27.8,71.5"/>
	<line class="st2" x1="118.4" y1="293.3" x2="137.3" y2="128.7"/>
	<polygon class="st3" points="186,141 85.7,128.1 67.9,135.2 83.6,146.7 183.9,159.7 203.2,152.7 	"/>
	<polygon class="st4" points="183.9,159.7 83.6,146.7 67.9,135.2 203.2,152.7 	"/>
	<polygon class="st3" points="183.9,159.7 83.6,146.7 61.2,153.3 76.9,164.8 186.3,178.9 205.6,171.9 	"/>
	<polygon class="st4" points="186.3,178.9 76.9,164.8 61.2,153.3 205.6,171.9 	"/>
	<polygon class="st3" points="186.6,179 76.9,164.8 54.5,171.4 70.2,182.9 188.7,198.2 208,191.2 	"/>
	<polygon class="st4" points="188.7,198.2 70.2,182.9 54.5,171.4 208,191.2 	"/>
	<polygon class="st3" points="188.7,198.2 70.2,182.9 47.8,189.5 63.5,201 191.1,217.5 210.4,210.5 	"/>
	<polygon class="st4" points="191.1,217.5 63.5,201 47.8,189.5 210.4,210.5 	"/>
	<polygon class="st3" points="191.1,217.5 63.5,201 51.8,209 67.4,220.5 182.9,235.4 202.2,228.4 	"/>
	<polygon class="st4" points="182.9,235.4 67.4,220.5 51.8,209 202.2,228.4 	"/>
	<polygon class="st3" points="182.9,235.4 67.4,220.5 52.7,228.1 68.3,239.6 177.7,253.7 197,246.7 	"/>
	<polygon class="st4" points="177.7,253.7 68.3,239.6 52.7,228.1 197,246.7 	"/>
	<polygon class="st3" points="177.7,253.7 68.3,239.6 55.1,247.3 70.7,258.8 171,271.8 190.3,264.8 	"/>
	<polygon class="st4" points="171,271.8 70.7,258.8 55.1,247.3 190.3,264.8 	"/>
	<path class="st2" d="M109.3,305.5c0.3-2.4,2.2-4.2,4.3-3.9s3.6,2.5,3.3,4.9s-2.2,4.2-4.3,3.9S109,307.9,109.3,305.5z"/>
	<path class="st2" d="M116.9,306.5c0.3-2.4,2.2-4.2,4.3-3.9s3.6,2.5,3.3,4.9s-2.2,4.2-4.3,3.9S116.6,309,116.9,306.5z"/>
	<path class="st2" d="M114.1,297.2c0.3-2.4,2.2-4.2,4.3-3.9s3.6,2.5,3.3,4.9s-2.2,4.2-4.3,3.9S113.9,299.6,114.1,297.2z"/>
	<path class="st2" d="M110.2,331.2c0.3-2.4,2.2-4.2,4.3-3.9s3.6,2.5,3.3,4.9s-2.2,4.2-4.3,3.9S110,333.6,110.2,331.2z"/>
	<path class="st2" d="M107.3,323.2c0.3-2.4,2.2-4.2,4.3-3.9s3.6,2.5,3.3,4.9s-2.2,4.2-4.3,3.9S107,325.7,107.3,323.2z"/>
	<path class="st2" d="M114.9,324.2c0.3-2.4,2.2-4.2,4.3-3.9s3.6,2.5,3.3,4.9s-2.2,4.2-4.3,3.9S114.6,326.6,114.9,324.2z"/>
	<path class="st2" d="M100.7,313.4c0.3-2.4,2.2-4.2,4.3-3.9s3.6,2.5,3.3,4.9s-2.2,4.2-4.3,3.9S100.5,315.8,100.7,313.4z"/>
	<path class="st2" d="M108.3,314.3c0.3-2.4,2.2-4.2,4.3-3.9s3.6,2.5,3.3,4.9s-2.2,4.2-4.3,3.9S108,316.8,108.3,314.3z"/>
	<path class="st2" d="M115.9,315.3c0.3-2.4,2.2-4.2,4.3-3.9s3.6,2.5,3.3,4.9s-2.2,4.2-4.3,3.9S115.6,317.8,115.9,315.3z"/>
	<path class="st2" d="M123.5,316.3c0.3-2.4,2.2-4.2,4.3-3.9s3.6,2.5,3.3,4.9s-2.2,4.2-4.3,3.9C124.7,321,123.2,318.8,123.5,316.3z"
		/>
	<polygon class="st5" points="85.7,128.1 87,116.8 186.4,129.6 185.1,140.9 	"/>
	<polygon class="st5" points="69.4,270.1 70.7,258.8 170.1,271.6 168.8,282.9 	"/>
</g>
<g id="Glantern1">
	<path class="st1" d="M263.5,162.2c0,0,7.1-74.2,20.1-68.4s31.4,67.9,31.4,67.9"/>
	<line class="st6" x1="325.2" y1="324.9" x2="289.2" y2="143.3"/>
	<polygon class="st7" points="236.6,162.2 346,136.9 366.3,143 350.1,157.5 240.7,182.9 218.8,177.2 	"/>
	<polygon class="st4" points="240.7,182.9 350.1,157.5 366.3,143 218.8,177.2 	"/>
	<polygon class="st7" points="240.7,182.9 350.1,157.5 375.4,162.5 359.2,177 239.8,204.6 217.9,198.9 	"/>
	<polygon class="st4" points="239.8,204.6 359.2,177 375.4,162.5 217.9,198.9 	"/>
	<polygon class="st7" points="239.5,204.7 359.2,177 384.4,181.9 368.2,196.5 238.9,226.4 217,220.7 	"/>
	<polygon class="st4" points="238.9,226.4 368.2,196.5 384.4,181.9 217,220.7 	"/>
	<polygon class="st7" points="238.9,226.4 368.2,196.5 393.5,201.4 377.3,215.9 238.1,248.2 216.1,242.5 	"/>
	<polygon class="st4" points="238.1,248.2 377.3,215.9 393.5,201.4 216.1,242.5 	"/>
	<polygon class="st7" points="238.1,248.2 377.3,215.9 390.9,223.6 374.8,238.1 248.8,267.3 226.9,261.6 	"/>
	<polygon class="st4" points="248.8,267.3 374.8,238.1 390.9,223.6 226.9,261.6 	"/>
	<polygon class="st7" points="248.8,267.3 374.8,238.1 391.7,245 375.5,259.5 256.2,287.2 234.2,281.4 	"/>
	<polygon class="st4" points="256.2,287.2 375.5,259.5 391.7,245 234.2,281.4 	"/>
	<polygon class="st7" points="256.2,287.2 375.5,259.5 390.8,266.7 374.6,281.3 265.2,306.6 243.3,300.9 	"/>
	<polygon class="st4" points="265.2,306.6 374.6,281.3 390.8,266.7 243.3,300.9 	"/>
	<path class="st6" d="M331.2,333.8c2.3-0.5,4.6,1.2,5.1,3.9s-0.9,5.3-3.2,5.8s-4.6-1.2-5.1-3.9S328.9,334.3,331.2,333.8z"/>
	<path class="st6" d="M323,335.6c2.3-0.5,4.6,1.2,5.1,3.9s-0.9,5.3-3.2,5.8s-4.6-1.2-5.1-3.9S320.7,336.2,323,335.6z"/>
	<path class="st6" d="M325.2,324.9c2.3-0.5,4.6,1.2,5.1,3.9s-0.9,5.3-3.2,5.8s-4.6-1.2-5.1-3.9S322.9,325.5,325.2,324.9z"/>
	<path class="st6" d="M332.6,362.5c2.3-0.5,4.6,1.2,5.1,3.9s-0.9,5.3-3.2,5.8s-4.6-1.2-5.1-3.9S330.3,363,332.6,362.5z"/>
	<path class="st6" d="M335.1,353.2c2.3-0.5,4.6,1.2,5.1,3.9s-0.9,5.3-3.2,5.8s-4.6-1.2-5.1-3.9S332.8,353.8,335.1,353.2z"/>
	<path class="st6" d="M326.8,355.2c2.3-0.5,4.6,1.2,5.1,3.9s-0.9,5.3-3.2,5.8s-4.6-1.2-5.1-3.9S324.5,355.7,326.8,355.2z"/>
	<path class="st6" d="M341.5,341.5c2.3-0.5,4.6,1.2,5.1,3.9s-0.9,5.3-3.2,5.8s-4.6-1.2-5.1-3.9S339.2,342.1,341.5,341.5z"/>
	<path class="st6" d="M333.2,343.4c2.3-0.5,4.6,1.2,5.1,3.9s-0.9,5.3-3.2,5.8s-4.6-1.2-5.1-3.9S330.9,344,333.2,343.4z"/>
	<path class="st6" d="M324.9,345.4c2.3-0.5,4.6,1.2,5.1,3.9s-0.9,5.3-3.2,5.8s-4.6-1.2-5.1-3.9S322.6,345.9,324.9,345.4z"/>
	<path class="st6" d="M316.6,347.3c2.3-0.5,4.6,1.2,5.1,3.9s-0.9,5.3-3.2,5.8s-4.6-1.2-5.1-3.9S314.3,347.9,316.6,347.3z"/>
	<polygon class="st5" points="235.2,149.5 343.6,124.4 346.1,136.9 237.7,162 	"/>
	<polygon class="st5" points="266.3,306.4 374.6,281.3 377.1,293.7 268.8,318.8 	"/>
</g>
<g id="Glantern2">
	<path class="st1" d="M1085.3,204.1c0,0,6.2-90.6,23.1-85.5c16.8,5.1,40.9,78.2,40.9,78.2"/>
	<line class="st2" x1="1144.2" y1="353.3" x2="1118.1" y2="178.7"/>
	<path class="st2" d="M1141.3,363.4c2.5-0.2,4.7,1.6,4.9,4c0,0,0,0,0,0c0.5,2.4-1.1,4.8-3.5,5.3c-2.5,0.2-4.7-1.6-4.9-4c0,0,0,0,0,0
		C1137.3,366.3,1138.9,364,1141.3,363.4z"/>
	<path class="st2" d="M1149.8,362c2.5-0.2,4.7,1.6,4.9,4c0,0,0,0,0,0c0.5,2.4-1.1,4.8-3.5,5.3c-2.5,0.2-4.7-1.6-4.9-4c0,0,0,0,0,0
		C1145.8,364.9,1147.3,362.5,1149.8,362z"/>
	<path class="st2" d="M1142.8,350c2.5-0.3,4.7,1.5,4.9,4c0,0,0,0,0,0c0.5,2.4-1.1,4.8-3.5,5.3c-2.5,0.3-4.7-1.5-4.9-4c0,0,0,0,0,0
		C1138.8,352.9,1140.3,350.6,1142.8,350z"/>
	<path class="st2" d="M1149.6,389.3c2.5-0.2,4.7,1.6,4.9,4c0,0,0,0,0,0c0.5,2.4-1.1,4.8-3.5,5.3c-2.5,0.2-4.7-1.6-4.9-4c0,0,0,0,0,0
		C1145.6,392.2,1147.1,389.9,1149.6,389.3z"/>
	<path class="st2" d="M1144.2,382c2.5-0.2,4.7,1.6,4.9,4c0,0,0,0,0,0c0.5,2.4-1.1,4.8-3.5,5.3c-2.5,0.2-4.7-1.6-4.9-4c0,0,0,0,0,0
		C1140.2,384.9,1141.7,382.5,1144.2,382z"/>
	<path class="st2" d="M1152.6,380.8c2.5-0.2,4.7,1.6,4.9,4c0,0,0,0,0,0c0.5,2.4-1.1,4.8-3.5,5.3c-2.5,0.2-4.7-1.6-4.9-4c0,0,0,0,0,0
		C1148.6,383.7,1150.1,381.4,1152.6,380.8z"/>
	<path class="st2" d="M1134.3,374c2.5-0.2,4.7,1.6,4.9,4c0,0,0,0,0,0c0.5,2.4-1.1,4.8-3.5,5.3c-2.5,0.2-4.7-1.6-4.9-4c0,0,0,0,0,0
		C1130.3,376.9,1131.9,374.5,1134.3,374z"/>
	<path class="st2" d="M1142.8,372.7c2.5-0.2,4.7,1.6,4.9,4c0,0,0,0,0,0c0.5,2.4-1.1,4.8-3.5,5.3c-2.5,0.2-4.7-1.6-4.9-4c0,0,0,0,0,0
		C1138.8,375.6,1140.3,373.2,1142.8,372.7z"/>
	<path class="st2" d="M1151.2,371.4c2.5-0.2,4.7,1.6,4.9,4c0,0,0,0,0,0c0.5,2.4-1.1,4.8-3.5,5.3c-2.5,0.2-4.7-1.6-4.9-4c0,0,0,0,0,0
		C1147.2,374.3,1148.7,371.9,1151.2,371.4z"/>
	<path class="st2" d="M1159.6,370.1c2.5-0.2,4.7,1.6,4.9,4c0,0,0,0,0,0c0.5,2.4-1.1,4.8-3.5,5.3c-2.5,0.2-4.7-1.6-4.9-4c0,0,0,0,0,0
		C1155.6,373,1157.1,370.7,1159.6,370.1z"/>
	<polygon class="st8" points="1173.8,176.4 1062.7,193.7 1045.6,206.5 1065.6,213.5 1176.7,196.3 1195.5,183.2 	"/>
	<polygon class="st4" points="1176.7,196.3 1065.6,213.5 1045.6,206.5 1195.5,183.2 	"/>
	<polygon class="st8" points="1176.7,196.3 1065.6,213.5 1043.5,227.1 1063.5,234.1 1184.8,215.3 1203.5,202.3 	"/>
	<polygon class="st4" points="1184.8,215.3 1063.5,234.1 1043.5,227.1 1203.5,202.3 	"/>
	<polygon class="st8" points="1185.1,215.3 1063.5,234.1 1041.4,247.7 1061.4,254.7 1192.8,234.4 1211.5,221.3 	"/>
	<polygon class="st4" points="1192.8,234.4 1061.4,254.7 1041.4,247.7 1211.5,221.3 	"/>
	<polygon class="st8" points="1192.8,234.4 1061.4,254.7 1039.3,268.3 1059.3,275.3 1200.8,253.4 1219.5,240.3 	"/>
	<polygon class="st4" points="1200.8,253.4 1059.3,275.3 1039.3,268.3 1219.5,240.3 	"/>
	<polygon class="st8" points="1200.8,253.4 1059.3,275.3 1049,287.1 1069,294.1 1197,274.3 1215.7,261.2 	"/>
	<polygon class="st4" points="1197,274.3 1069,294.1 1049,287.1 1215.7,261.2 	"/>
	<polygon class="st8" points="1197,274.3 1069,294.1 1055.3,306.4 1075.3,313.4 1196.6,294.6 1215.3,281.6 	"/>
	<polygon class="st4" points="1196.6,294.6 1075.3,313.4 1055.3,306.4 1215.3,281.6 	"/>
	<polygon class="st8" points="1196.6,294.6 1075.3,313.4 1063.4,325.4 1083.4,332.5 1194.5,315.2 1213.2,302.2 	"/>
	<polygon class="st4" points="1194.5,315.2 1083.4,332.5 1063.4,325.4 1213.2,302.2 	"/>
	<polygon class="st5" points="1060.9,181.7 1171,164.6 1172.7,176.6 1062.7,193.6 	"/>
	<polygon class="st5" points="1083.4,332.4 1193.4,315.3 1195.2,327.3 1085.1,344.4 	"/>
</g>
<g id="Rlantern2">
	<path class="st1" d="M1291.5,202.2c0,0,13.4-101.4,31.1-95.5c17.7,5.9,35.9,87,35.9,87"/>
	<line class="st2" x1="1305" y1="373.9" x2="1318.8" y2="169.6"/>
	<polygon class="st3" points="1376.2,182.4 1258.6,171.3 1238.2,181.1 1257.1,194.5 1374.6,205.6 1396.8,196 	"/>
	<polygon class="st4" points="1374.6,205.6 1257.1,194.5 1238.2,181.1 1396.8,196 	"/>
	<polygon class="st3" points="1374.6,205.6 1257.1,194.5 1231.3,203.7 1250.1,217.2 1378.4,229.3 1400.6,219.7 	"/>
	<polygon class="st4" points="1378.4,229.3 1250.1,217.2 1231.3,203.7 1400.6,219.7 	"/>
	<polygon class="st3" points="1378.8,229.3 1250.1,217.2 1224.4,226.4 1243.2,239.9 1382.2,253 1404.3,243.4 	"/>
	<polygon class="st4" points="1382.2,253 1243.2,239.9 1224.4,226.4 1404.3,243.4 	"/>
	<polygon class="st3" points="1382.2,253 1243.2,239.9 1217.5,249.1 1236.3,262.6 1386,276.7 1408.1,267.1 	"/>
	<polygon class="st4" points="1386,276.7 1236.3,262.6 1217.5,249.1 1408.1,267.1 	"/>
	<polygon class="st3" points="1386,276.7 1236.3,262.6 1223.1,273 1241.9,286.4 1377.3,299.2 1399.4,289.6 	"/>
	<polygon class="st4" points="1377.3,299.2 1241.9,286.4 1223.1,273 1399.4,289.6 	"/>
	<polygon class="st3" points="1377.3,299.2 1241.9,286.4 1225,296.5 1243.9,310 1372.1,322.1 1394.3,312.5 	"/>
	<polygon class="st4" points="1372.1,322.1 1243.9,310 1225,296.5 1394.3,312.5 	"/>
	<polygon class="st3" points="1372.1,322.1 1243.9,310 1228.8,320.2 1247.6,333.7 1365.2,344.8 1387.4,335.2 	"/>
	<polygon class="st4" points="1365.2,344.8 1247.6,333.7 1228.8,320.2 1387.4,335.2 	"/>
	<path class="st2" d="M1295,389.5c0.2-3,2.4-5.3,4.8-5.1c2.4,0.2,4.3,2.9,4.1,5.9c-0.2,3-2.4,5.3-4.8,5.1
		C1296.6,395.2,1294.7,392.5,1295,389.5z"/>
	<path class="st2" d="M1303.9,390.4c0.2-3,2.4-5.3,4.8-5c2.5,0.2,4.3,2.9,4.1,5.9s-2.4,5.3-4.8,5
		C1305.5,396.1,1303.7,393.4,1303.9,390.4z"/>
	<path class="st2" d="M1300.1,379c0.2-3,2.4-5.3,4.8-5.1c2.4,0.2,4.3,2.9,4.1,5.9c-0.2,3-2.4,5.3-4.8,5.1
		C1301.8,384.7,1299.9,382,1300.1,379z"/>
	<path class="st2" d="M1297.3,421.2c0.2-3,2.4-5.3,4.8-5.1c2.4,0.2,4.3,2.9,4.1,5.9c-0.2,3-2.4,5.3-4.8,5.1
		C1298.9,426.9,1297.1,424.2,1297.3,421.2z"/>
	<path class="st2" d="M1293.5,411.5c0.2-3,2.4-5.3,4.8-5s4.3,2.9,4.1,5.9c-0.2,3-2.4,5.3-4.8,5
		C1295.1,417.1,1293.3,414.5,1293.5,411.5z"/>
	<path class="st2" d="M1302.4,412.3c0.2-3,2.4-5.3,4.8-5.1c2.4,0.2,4.3,2.9,4.1,5.9c-0.2,3-2.4,5.3-4.8,5.1
		C1304,418,1302.2,415.3,1302.4,412.3z"/>
	<path class="st2" d="M1285.3,399.7c0.2-3,2.4-5.3,4.8-5s4.3,2.9,4.1,5.9s-2.4,5.3-4.8,5S1285.1,402.7,1285.3,399.7z"/>
	<path class="st2" d="M1294.2,400.5c0.2-3,2.4-5.3,4.8-5.1c2.4,0.2,4.3,2.9,4.1,5.9s-2.4,5.3-4.8,5.1
		C1295.9,406.2,1294,403.5,1294.2,400.5z"/>
	<path class="st2" d="M1303.1,401.3c0.2-3,2.4-5.3,4.8-5.1c2.5,0.2,4.3,2.9,4.1,5.9s-2.4,5.3-4.8,5.1
		C1304.7,407,1302.9,404.4,1303.1,401.3z"/>
	<path class="st2" d="M1312,402.2c0.2-3,2.4-5.3,4.8-5.1s4.3,2.9,4.1,5.9c-0.2,3-2.4,5.3-4.8,5.1
		C1313.7,407.9,1311.8,405.2,1312,402.2z"/>
	<polygon class="st5" points="1258.6,171.3 1259.6,157.3 1376,168.3 1375.1,182.3 	"/>
	<polygon class="st5" points="1246.7,347.7 1247.6,333.7 1364.1,344.7 1363.1,358.7 	"/>
</g>
</svg>
