<svg xmlns="http://www.w3.org/2000/svg" viewBox="0 0 1201 800.1"><defs><style>.cls-1{isolation:isolate;}.cls-2{fill:#015184;}.cls-3{fill:#002957;}.cls-11,.cls-4,.cls-5,.cls-9{fill:none;stroke-miterlimit:10;stroke-width:4px;}.cls-4{stroke:#002552;}.cls-5{stroke:#2d3e50;}.cls-6{fill:#41b19c;}.cls-7{fill:#cfd1d2;mix-blend-mode:multiply;}.cls-8{fill:#95a4a4;}.cls-9{stroke:#35495e;}.cls-10{fill:#efc319;}.cls-11{stroke:#eceff0;}.cls-12{fill:#e74d3d;}.cls-13{fill:#56bc80;}</style></defs><title>none</title><g class="cls-1"><g id="ARTBOARD_2" data-name="ARTBOARD 2"><rect id="background" class="cls-2" x="2.44" width="1198.18" height="800.1"/><path id="mountain" class="cls-3" d="M-1.82,800.1V760.34S154.38,610.68,207.4,616.42c20.71,2.24,116.36,73.79,151.3,72.34,20.51-.85,114.64-126,207.26-126S689.28,671.89,741.28,693.54s102.95-90.28,187-91.23,93.67,43.9,176.75,72,93.17,51.28,93.17,51.28V800.1Z" transform="translate(2.44)"/><path id="line" class="cls-4" d="M-1.82,146.45s456.9,150,1200,8" transform="translate(2.44)"/><path class="cls-4" d="M270.33,269.31s8-76.84,22.58-70.88,35.16,70.29,35.16,70.29" transform="translate(2.44)"/><line class="cls-5" x1="341.9" y1="437.94" x2="301.59" y2="249.74"/><polygon class="cls-6" points="242.65 269.4 365.28 243.14 388.01 249.45 369.86 264.51 247.23 290.76 222.64 284.86 242.65 269.4"/><polygon class="cls-7" points="247.23 290.76 369.86 264.51 388.01 249.45 222.64 284.86 247.23 290.76"/><polygon class="cls-6" points="247.23 290.76 369.86 264.51 398.15 269.62 380 284.68 246.23 313.32 221.65 307.42 247.23 290.76"/><polygon class="cls-7" points="246.23 313.32 380 284.68 398.15 269.62 221.65 307.42 246.23 313.32"/><polygon class="cls-6" points="245.84 313.41 380 284.68 408.3 289.79 390.15 304.85 245.23 335.88 220.65 329.98 245.84 313.41"/><polygon class="cls-7" points="245.23 335.88 390.15 304.85 408.3 289.79 220.65 329.98 245.23 335.88"/><polygon class="cls-6" points="245.23 335.88 390.15 304.85 418.45 309.96 400.3 325.03 244.23 358.44 219.65 352.54 245.23 335.88"/><polygon class="cls-7" points="244.23 358.44 400.3 325.03 418.45 309.96 219.65 352.54 244.23 358.44"/><polygon class="cls-6" points="244.23 358.44 400.3 325.03 415.6 332.93 397.45 347.98 256.24 378.22 231.66 372.31 244.23 358.44"/><polygon class="cls-7" points="256.24 378.22 397.45 347.98 415.6 332.93 231.66 372.31 256.24 378.22"/><polygon class="cls-6" points="256.24 378.22 397.45 347.98 416.46 355.09 398.31 370.15 264.53 398.79 239.95 392.88 256.24 378.22"/><polygon class="cls-7" points="264.53 398.79 398.31 370.15 416.46 355.09 239.95 392.88 264.53 398.79"/><polygon class="cls-6" points="264.53 398.79 398.31 370.15 415.46 377.65 397.31 392.71 274.68 418.97 250.09 413.06 264.53 398.79"/><polygon class="cls-7" points="274.68 418.97 397.31 392.71 415.46 377.65 250.09 413.06 274.68 418.97"/><ellipse class="cls-5" cx="347.34" cy="452.09" rx="4.75" ry="5.16" transform="translate(-84.51 82.74) rotate(-12.08)"/><ellipse class="cls-5" cx="338.05" cy="454.08" rx="4.75" ry="5.16" transform="translate(-85.15 80.86) rotate(-12.09)"/><ellipse class="cls-5" cx="340.53" cy="442.99" rx="4.75" ry="5.16" transform="translate(-82.77 81.13) rotate(-12.09)"/><ellipse class="cls-5" cx="348.86" cy="481.86" rx="4.75" ry="5.16" transform="translate(-90.68 83.68) rotate(-12.08)"/><ellipse class="cls-5" cx="351.67" cy="472.28" rx="4.75" ry="5.16" transform="translate(-88.6 84.05) rotate(-12.08)"/><ellipse class="cls-5" cx="342.38" cy="474.27" rx="4.75" ry="5.16" transform="translate(-89.31 82.24) rotate(-12.09)"/><ellipse class="cls-5" cx="358.79" cy="460.19" rx="4.75" ry="5.16" transform="translate(-85.96 85.32) rotate(-12.09)"/><ellipse class="cls-5" cx="349.5" cy="462.18" rx="4.75" ry="5.16" transform="translate(-86.58 83.42) rotate(-12.09)"/><ellipse class="cls-5" cx="340.21" cy="464.17" rx="4.75" ry="5.16" transform="translate(-87.24 81.57) rotate(-12.09)"/><ellipse class="cls-5" cx="330.92" cy="466.16" rx="4.75" ry="5.16" transform="translate(-87.8 79.59) rotate(-12.08)"/><rect class="cls-8" x="238.62" y="243.1" width="124.22" height="13.19" transform="translate(-43.17 68.5) rotate(-12.09)"/><rect class="cls-8" x="273.41" y="405.57" width="124.22" height="13.19" transform="translate(-76.42 79.39) rotate(-12.09)"/><path class="cls-4" d="M918.31,269.39s-7.45-79.33-22.44-74.53-35.08,69.4-35.08,69.4" transform="translate(2.44)"/><line class="cls-9" x1="855.45" y1="439.26" x2="891.99" y2="250.3"/><ellipse class="cls-9" cx="845.4" cy="453.57" rx="5.16" ry="4.75" transform="translate(242.11 1197.55) rotate(-79.06)"/><ellipse class="cls-9" cx="854.73" cy="455.37" rx="5.16" ry="4.75" transform="translate(247.72 1208.04) rotate(-79.05)"/><ellipse class="cls-9" cx="852.03" cy="444.33" rx="5.16" ry="4.75" transform="translate(256.54 1196.57) rotate(-79.06)"/><ellipse class="cls-9" cx="844.48" cy="483.37" rx="5.16" ry="4.75" transform="translate(212.09 1220.79) rotate(-79.06)"/><ellipse class="cls-9" cx="841.48" cy="473.84" rx="5.16" ry="4.75" transform="translate(218.87 1210) rotate(-79.05)"/><ellipse class="cls-9" cx="850.81" cy="475.64" rx="5.16" ry="4.75" transform="translate(224.8 1220.74) rotate(-79.06)"/><ellipse class="cls-9" cx="834.12" cy="461.9" rx="5.16" ry="4.75" transform="translate(224.78 1193.22) rotate(-79.06)"/><ellipse class="cls-9" cx="843.44" cy="463.7" rx="5.16" ry="4.75" transform="translate(230.41 1203.71) rotate(-79.05)"/><ellipse class="cls-9" cx="852.77" cy="465.51" rx="5.16" ry="4.75" transform="translate(236.34 1214.45) rotate(-79.06)"/><ellipse class="cls-9" cx="862.1" cy="467.31" rx="5.16" ry="4.75" transform="translate(241.98 1224.95) rotate(-79.05)"/><polygon class="cls-10" points="951.31 268.78 828.19 244.97 805.59 251.73 824.04 266.42 947.17 290.24 971.63 283.84 951.31 268.78"/><polygon class="cls-7" points="947.17 290.24 824.04 266.42 805.59 251.73 971.63 283.84 947.17 290.24"/><polygon class="cls-10" points="947.17 290.24 824.04 266.42 795.85 272.1 814.29 286.8 948.61 312.77 973.08 306.37 947.17 290.24"/><polygon class="cls-7" points="948.61 312.77 814.29 286.8 795.85 272.1 973.08 306.37 948.61 312.77"/><polygon class="cls-10" points="949 312.85 814.29 286.8 786.1 292.47 804.55 307.17 950.06 335.31 974.52 328.91 949 312.85"/><polygon class="cls-7" points="950.06 335.31 804.55 307.17 786.1 292.47 974.52 328.91 950.06 335.31"/><polygon class="cls-10" points="950.06 335.31 804.55 307.17 776.36 312.85 794.8 327.54 951.51 357.84 975.97 351.45 950.06 335.31"/><polygon class="cls-7" points="951.51 357.84 794.8 327.54 776.36 312.85 975.97 351.45 951.51 357.84"/><polygon class="cls-10" points="951.51 357.84 794.8 327.54 779.67 335.74 798.12 350.44 939.9 377.85 964.36 371.46 951.51 357.84"/><polygon class="cls-7" points="939.9 377.85 798.12 350.44 779.67 335.74 964.36 371.46 939.9 377.85"/><polygon class="cls-10" points="939.9 377.85 798.12 350.44 779.25 357.92 797.7 372.61 932.02 398.58 956.48 392.19 939.9 377.85"/><polygon class="cls-7" points="932.02 398.58 797.7 372.61 779.25 357.92 956.48 392.19 932.02 398.58"/><polygon class="cls-10" points="932.02 398.58 797.7 372.61 780.7 380.45 799.15 395.15 922.27 418.96 946.74 412.56 932.02 398.58"/><polygon class="cls-7" points="922.27 418.96 799.15 395.15 780.7 380.45 946.74 412.56 922.27 418.96"/><rect class="cls-8" x="881.38" y="188.18" width="13.19" height="124.22" transform="translate(476.1 1074.6) rotate(-79.06)"/><rect class="cls-8" x="849.84" y="351.31" width="13.19" height="124.22" transform="translate(290.37 1175.78) rotate(-79.06)"/><path class="cls-4" d="M94.06,245s13.77-76.33,28.76-71.53,28.76,66.4,28.76,66.4" transform="translate(2.44)"/><line class="cls-11" x1="104.09" y1="374.97" x2="120.57" y2="220.97"/><polygon class="cls-12" points="169.4 231.76 69.05 221.03 51.39 227.98 67.18 238.51 167.53 249.25 186.71 242.46 169.4 231.76"/><polygon class="cls-7" points="167.53 249.25 67.18 238.51 51.39 227.98 186.71 242.46 167.53 249.25"/><polygon class="cls-12" points="167.53 249.25 67.18 238.51 44.96 244.98 60.75 255.51 170.22 267.22 189.4 260.43 167.53 249.25"/><polygon class="cls-7" points="170.22 267.22 60.75 255.51 44.96 244.98 189.4 260.43 170.22 267.22"/><polygon class="cls-12" points="170.53 267.25 60.75 255.51 38.52 261.97 54.31 272.5 172.91 285.19 192.09 278.4 170.53 267.25"/><polygon class="cls-7" points="172.91 285.19 54.31 272.5 38.52 261.97 192.09 278.4 172.91 285.19"/><polygon class="cls-12" points="172.91 285.19 54.31 272.5 32.09 278.97 47.88 289.5 175.6 303.17 194.78 296.38 172.91 285.19"/><polygon class="cls-7" points="175.6 303.17 47.88 289.5 32.09 278.97 194.78 296.38 175.6 303.17"/><polygon class="cls-12" points="175.6 303.17 47.88 289.5 36.3 297.11 52.09 307.64 167.64 320 186.82 313.21 175.6 303.17"/><polygon class="cls-7" points="167.64 320 52.09 307.64 36.3 297.11 186.82 313.21 167.64 320"/><polygon class="cls-12" points="167.64 320 52.09 307.64 37.47 314.92 53.26 325.45 162.73 337.16 181.91 330.37 167.64 320"/><polygon class="cls-7" points="162.73 337.16 53.26 325.45 37.47 314.92 181.91 330.37 162.73 337.16"/><polygon class="cls-12" points="162.73 337.16 53.26 325.45 40.16 332.89 55.95 343.42 156.3 354.16 175.48 347.37 162.73 337.16"/><polygon class="cls-7" points="156.3 354.16 55.95 343.42 40.16 332.89 175.48 347.37 156.3 354.16"/><ellipse class="cls-11" cx="96.53" cy="386.96" rx="4.15" ry="3.82" transform="translate(-296.07 441.72) rotate(-83.89)"/><ellipse class="cls-11" cx="104.13" cy="387.77" rx="4.15" ry="3.82" transform="translate(-290.09 450) rotate(-83.88)"/><ellipse class="cls-11" cx="101.21" cy="379.11" rx="4.15" ry="3.82" transform="translate(-284.06 439.46) rotate(-83.9)"/><ellipse class="cls-11" cx="97.81" cy="410.92" rx="4.15" ry="3.82" transform="translate(-318.74 464.51) rotate(-83.9)"/><ellipse class="cls-11" cx="94.76" cy="403.48" rx="4.15" ry="3.82" transform="translate(-314.08 454.72) rotate(-83.88)"/><ellipse class="cls-11" cx="102.36" cy="404.3" rx="4.15" ry="3.82" transform="translate(-308.08 463.11) rotate(-83.9)"/><ellipse class="cls-11" cx="88.04" cy="394.41" rx="4.15" ry="3.82" transform="translate(-311.06 439.93) rotate(-83.88)"/><ellipse class="cls-11" cx="95.64" cy="395.22" rx="4.15" ry="3.82" transform="translate(-305.06 448.32) rotate(-83.9)"/><ellipse class="cls-11" cx="103.24" cy="396.04" rx="4.16" ry="3.82" transform="translate(-299.08 456.61) rotate(-83.9)"/><ellipse class="cls-11" cx="110.85" cy="396.85" rx="4.16" ry="3.82" transform="translate(-293.09 464.9) rotate(-83.9)"/><rect class="cls-8" x="111.56" y="171.08" width="10.62" height="99.96" transform="translate(-112.93 313.75) rotate(-83.89)"/><rect class="cls-8" x="97.34" y="304.03" width="10.62" height="99.96" transform="translate(-257.84 418.41) rotate(-83.89)"/><path class="cls-4" d="M1048.79,248.12s7.45-79.33,22.44-74.53S1106.3,243,1106.3,243" transform="translate(2.44)"/><line class="cls-11" x1="1101" y1="380.13" x2="1081.19" y2="226.51"/><ellipse class="cls-11" cx="1096.36" cy="392.98" rx="3.82" ry="4.15" transform="translate(-38.8 143.38) rotate(-7.34)"/><ellipse class="cls-11" cx="1103.94" cy="392" rx="3.82" ry="4.15" transform="translate(-38.59 144.24) rotate(-7.34)"/><ellipse class="cls-11" cx="1099.09" cy="384.25" rx="3.82" ry="4.15" transform="matrix(0.99, -0.13, 0.13, 0.99, -37.69, 143.8)"/><ellipse class="cls-11" cx="1103.18" cy="415.98" rx="3.82" ry="4.15" transform="translate(-41.79 144.87) rotate(-7.37)"/><ellipse class="cls-11" cx="1098.49" cy="409.46" rx="3.82" ry="4.15" transform="translate(-40.86 143.65) rotate(-7.34)"/><ellipse class="cls-11" cx="1106.07" cy="408.48" rx="3.82" ry="4.15" transform="translate(-40.74 144.93) rotate(-7.35)"/><ellipse class="cls-11" cx="1089.84" cy="402.2" rx="3.82" ry="4.16" transform="translate(-40.01 142.5) rotate(-7.34)"/><ellipse class="cls-11" cx="1097.43" cy="401.22" rx="3.82" ry="4.15" transform="translate(-39.87 143.69) rotate(-7.35)"/><ellipse class="cls-11" cx="1105.01" cy="400.24" rx="3.82" ry="4.16" transform="translate(-39.73 144.86) rotate(-7.36)"/><ellipse class="cls-11" cx="1112.59" cy="399.26" rx="3.82" ry="4.16" transform="translate(-39.51 145.67) rotate(-7.35)"/><polygon class="cls-13" points="1131.18 225.65 1031.09 238.56 1015.54 249.43 1033.34 256 1133.43 243.09 1150.51 232.03 1131.18 225.65"/><polygon class="cls-7" points="1133.43 243.09 1033.34 256 1015.54 249.43 1150.51 232.03 1133.43 243.09"/><polygon class="cls-13" points="1133.43 243.09 1033.34 256 1013.24 267.46 1031.04 274.03 1140.23 259.94 1157.31 248.88 1133.43 243.09"/><polygon class="cls-7" points="1140.23 259.94 1031.04 274.03 1013.24 267.46 1157.31 248.88 1140.23 259.94"/><polygon class="cls-13" points="1140.55 259.9 1031.04 274.03 1010.93 285.49 1028.74 292.05 1147.03 276.8 1164.11 265.73 1140.55 259.9"/><polygon class="cls-7" points="1147.03 276.8 1028.74 292.05 1010.93 285.49 1164.11 265.73 1147.03 276.8"/><polygon class="cls-13" points="1147.03 276.8 1028.74 292.05 1008.64 303.51 1026.44 310.08 1153.83 293.65 1170.91 282.58 1147.03 276.8"/><polygon class="cls-7" points="1153.83 293.65 1026.44 310.08 1008.64 303.51 1170.91 282.58 1153.83 293.65"/><polygon class="cls-13" points="1153.83 293.65 1026.44 310.08 1016.95 320.17 1034.76 326.74 1150.01 311.87 1167.09 300.81 1153.83 293.65"/><polygon class="cls-7" points="1150.01 311.87 1034.76 326.74 1016.95 320.17 1167.09 300.81 1150.01 311.87"/><polygon class="cls-13" points="1150.01 311.87 1034.76 326.74 1022.23 337.22 1040.04 343.79 1149.23 329.71 1166.3 318.64 1150.01 311.87"/><polygon class="cls-7" points="1149.23 329.71 1040.04 343.79 1022.23 337.22 1166.3 318.64 1149.23 329.71"/><polygon class="cls-13" points="1149.23 329.71 1040.04 343.79 1029.03 354.07 1046.84 360.64 1146.93 347.73 1164.01 336.67 1149.23 329.71"/><polygon class="cls-7" points="1146.93 347.73 1046.84 360.64 1029.03 354.07 1164.01 336.67 1146.93 347.73"/><rect class="cls-8" x="1027.56" y="221.59" width="99.96" height="10.62" transform="translate(-17.73 139.68) rotate(-7.35)"/><rect class="cls-8" x="1044.67" y="354.2" width="99.96" height="10.62" transform="translate(-34.55 142.93) rotate(-7.35)"/></g></g></svg>