<svg xmlns="http://www.w3.org/2000/svg" xmlns:xlink="http://www.w3.org/1999/xlink" viewBox="0 0 2971.07 1032.29"><defs><style>.cls-1{fill:none;}.cls-2{isolation:isolate;}.cls-3{fill:#4b7181;}.cls-4{clip-path:url(#clip-path);}.cls-5{mix-blend-mode:multiply;}.cls-6{fill:#d9dbdc;}.cls-7{fill:#ffdf63;}.cls-8{fill:#ffc73d;}.cls-9{fill:#fff;}</style><clipPath id="clip-path" transform="translate(792.79 1.29)"><rect class="cls-1" width="1758.47" height="1031"/></clipPath></defs><title>quiz</title><g class="cls-2"><g id="Background"><rect class="cls-3" x="792.79" y="1.29" width="1758.47" height="1031"/></g><g id="Object"><g class="cls-4"><g class="cls-5"><path class="cls-6" d="M262.08,149.39c.12-3,.18-11.67-3-14.61a4.19,4.19,0,0,0-2.9-1.15c-5.2,0-10,7.71-11.72,10.89a59.87,59.87,0,0,0-11.61-1.59c-3.3,0-5.31.7-6.14,2.15-2.08,3.61,5.68,10,10.28,13.28-3.28,3-10.84,10.39-10.42,14a2.56,2.56,0,0,0,1.31,2,5.67,5.67,0,0,0,2.91.65c4.93,0,13.84-3.77,17.28-5.32,2.07,3.88,7.55,13.18,12.68,13.18a4.34,4.34,0,0,0,1.76-.37c5.4-2.37,2.53-12.27,1.16-16.15,9.62-3.57,14.49-6.39,14.49-8.41C278.18,157.16,278.18,154.84,262.08,149.39Z" transform="translate(792.79 1.29)"/><path class="cls-6" d="M881.41,210.33c-.35-.71-1.42-2.83-18.65-2.11-1.27-2.81-5.18-10.74-9.42-12.32a4.43,4.43,0,0,0-3.19,0c-4.76,1.84-5.59,10.6-5.73,14.12a59,59,0,0,0-11.36,2.66c-3,1.17-4.54,2.53-4.64,4.14-.25,4,9.76,7.09,15.5,8.51-1.62,3.92-5.15,13.35-3.11,16.54a3,3,0,0,0,2.1,1.34,5.74,5.74,0,0,0,3-.44c4.51-1.75,10.94-8.36,13.37-11,3.67,2.82,13,9.38,17.64,7.56a3.89,3.89,0,0,0,1.44-1c3.85-4.08-3.32-12.13-6.35-15.19C879.17,216.49,882.33,212.18,881.41,210.33Z" transform="translate(792.79 1.29)"/><path class="cls-6" d="M751.2,490.86c-.35-.71-1.42-2.83-18.65-2.11-1.27-2.81-5.18-10.74-9.42-12.32a4.43,4.43,0,0,0-3.19,0c-4.76,1.84-5.59,10.6-5.73,14.12a59.07,59.07,0,0,0-11.36,2.66c-3,1.17-4.54,2.53-4.64,4.14-.25,4,9.76,7.09,15.5,8.51-1.62,3.92-5.15,13.35-3.11,16.54a3,3,0,0,0,2.1,1.34,5.74,5.74,0,0,0,3-.44c4.51-1.75,10.94-8.36,13.37-11,3.67,2.82,13,9.38,17.64,7.56a3.9,3.9,0,0,0,1.44-1c3.85-4.08-3.32-12.13-6.35-15.19C749,497,752.12,492.7,751.2,490.86Z" transform="translate(792.79 1.29)"/><path class="cls-6" d="M1362.4,543.38c-.64-3-2.76-11.41-6.58-13.67a4.37,4.37,0,0,0-3.12-.56c-5.07,1-7.78,9.47-8.68,12.91a60.29,60.29,0,0,0-11.73.72c-3.22.64-5,1.72-5.45,3.29-1.12,3.92,8,8.59,13.38,10.94-2.44,3.58-7.95,12.25-6.63,15.71a2.76,2.76,0,0,0,1.78,1.66,5.78,5.78,0,0,0,3,.06c4.81-1,12.54-6.38,15.51-8.56,3,3.38,10.69,11.37,15.68,10.38a4.14,4.14,0,0,0,1.62-.7c4.66-3.37-.63-12.46-2.94-16,8.48-5.35,12.52-9.06,12-11C1380.06,547.82,1379.47,545.55,1362.4,543.38Z" transform="translate(792.79 1.29)"/><path class="cls-6" d="M1715.69,515.26c0-.77-.14-3.1-16.46-8,0-3-.33-11.66-3.61-14.5a4.23,4.23,0,0,0-3-1.05c-5.19.18-9.62,8-11.23,11.28a60,60,0,0,0-11.68-1.19c-3.3.11-5.28.88-6,2.36-1.92,3.67,6.11,9.75,10.86,12.92-3.15,3.12-10.37,10.75-9.8,14.37a2.59,2.59,0,0,0,1.4,1.92,5.7,5.7,0,0,0,2.94.55c4.93-.17,13.66-4.24,17-5.9,2.24,3.81,8.13,12.91,13.25,12.73a4.32,4.32,0,0,0,1.74-.43c5.29-2.55,2-12.35.45-16.18C1711,520.26,1715.78,517.27,1715.69,515.26Z" transform="translate(792.79 1.29)"/><path class="cls-6" d="M398.41,587.12c6-7.49,8.47-12.15,7.26-13.87-.46-.66-1.86-2.63-18.8.21-1.71-2.63-6.85-10-11.29-11a4.4,4.4,0,0,0-3.16.37C368,565.22,368.58,574,369,577.5a57.33,57.33,0,0,0-10.82,4c-2.8,1.53-4.09,3.06-3.93,4.68.4,4,10.8,5.81,16.71,6.51-1,4.08-3,13.86-.43,16.76a3.08,3.08,0,0,0,2.3,1.06,5.62,5.62,0,0,0,2.86-.8c4.19-2.29,9.49-9.63,11.48-12.54,4.09,2.34,14.32,7.68,18.68,5.31a3.7,3.7,0,0,0,1.28-1.13C410.28,596.86,401.9,589.78,398.41,587.12Z" transform="translate(792.79 1.29)"/><path class="cls-6" d="M1409,148.36c.12-3,.18-11.67-3-14.61a4.19,4.19,0,0,0-2.9-1.15c-5.2,0-10,7.71-11.72,10.89a59.87,59.87,0,0,0-11.61-1.59c-3.3,0-5.31.7-6.14,2.15-2.08,3.61,5.68,10,10.28,13.28-3.28,3-10.84,10.39-10.42,14a2.56,2.56,0,0,0,1.31,2,5.67,5.67,0,0,0,2.91.65c4.93,0,13.84-3.77,17.28-5.32,2.07,3.88,7.55,13.18,12.68,13.18a4.35,4.35,0,0,0,1.76-.37c5.39-2.37,2.53-12.27,1.16-16.15,9.62-3.57,14.49-6.39,14.49-8.41C1425.08,156.13,1425.08,153.81,1409,148.36Z" transform="translate(792.79 1.29)"/></g><g class="cls-5"><path class="cls-6" d="M1733.59,165.06h-1.49c-116.42-.35-217.05-42.16-281-77.18-64.45-35.3-105.57-71-111.29-76.07A1566.13,1566.13,0,0,1,955.74,89.28a1556.79,1556.79,0,0,1-313-8.64C474.39,58.83,366,15.83,356,11.78,233,80.57,121.39,104.42,49.36,112.31c-78.24,8.57-128,.66-128.51.58a1.31,1.31,0,0,1-1.17-1.5,1.46,1.46,0,0,1,1.71-1c.49.08,49.92,7.92,127.75-.62C121,101.85,232.36,78,355.15,9.22a1.64,1.64,0,0,1,1.42-.08c1.09.46,111.22,46.24,286.68,69,161.92,21,414.17,26,696.43-69a1.61,1.61,0,0,1,1.58.31c.42.38,42.53,38.56,111.48,76.32,63.59,34.82,163.68,76.4,279.38,76.74h1.45c130.49,0,253.76-51.49,366.44-153.07a1.61,1.61,0,0,1,2.07,0,1.18,1.18,0,0,1,0,1.82C1988.88,113.3,1864.89,165.06,1733.59,165.06Z" transform="translate(792.79 1.29)"/></g><g class="cls-5"><path class="cls-6" d="M422.9,438.84a1363.42,1363.42,0,0,1-141.25-7c-120.74-12.6-225.36-42.26-311-88.17a1.2,1.2,0,0,1-.49-1.77,1.58,1.58,0,0,1,2-.43C165.31,445,419.82,445.14,599.32,427c194.58-19.65,345.35-64.38,346.85-64.83a1.62,1.62,0,0,1,.84,0c432.84,98.26,742.11,61.15,925.33,12.71,198.4-52.45,295.69-129,296.65-129.8a1.62,1.62,0,0,1,2.07.09,1.18,1.18,0,0,1-.1,1.82c-1,.77-98.74,77.74-297.77,130.36-116.84,30.89-245.23,47.49-381.61,49.33-170.3,2.3-353.63-18.53-544.88-61.92-9,2.64-157.21,45.66-347,64.83A1762.73,1762.73,0,0,1,422.9,438.84Z" transform="translate(792.79 1.29)"/></g><path class="cls-7" d="M265.81,145.65c.28-4.24,0-11.69-2.13-13.64a1.06,1.06,0,0,0-.77-.34c-3,0-7.37,6.06-9.57,10.37a1.53,1.53,0,0,1-1.74.71,62.46,62.46,0,0,0-12-1.78c-3,0-3.48.66-3.53.73-.76,1.32,4.37,6.56,10.75,11a1.25,1.25,0,0,1,.55.93,1.2,1.2,0,0,1-.42,1c-6.31,5.58-11.41,11.81-10.7,13.06a2.78,2.78,0,0,0,1.29.21c4.42,0,14-4.08,17.28-5.65a1.64,1.64,0,0,1,.7-.15,1.62,1.62,0,0,1,.48.07,1.41,1.41,0,0,1,.87.7c2.6,5.2,7.77,12.89,10.64,12.89a1.08,1.08,0,0,0,.45-.09c2.78-1.22,1.21-9.17-.73-14.16a1.25,1.25,0,0,1,.83-1.61c5.89-2.13,12.56-5.13,13.8-6.46-1.37-1.34-8.66-4.35-15.07-6.49A1.29,1.29,0,0,1,265.81,145.65Z" transform="translate(792.79 1.29)"/><path class="cls-8" d="M262.43,149.6c.14-2.16,0-6-1.09-7a.54.54,0,0,0-.39-.18c-1.51,0-3.76,3.09-4.88,5.29a.78.78,0,0,1-.89.36,31.85,31.85,0,0,0-6.13-.91c-1.54,0-1.78.34-1.8.37-.39.67,2.23,3.34,5.48,5.61a.64.64,0,0,1,.28.48.61.61,0,0,1-.22.5c-3.22,2.85-5.82,6-5.46,6.66a1.41,1.41,0,0,0,.66.11c2.25,0,7.12-2.08,8.81-2.88a.84.84,0,0,1,.36-.08.82.82,0,0,1,.24,0,.72.72,0,0,1,.44.36c1.32,2.65,4,6.57,5.43,6.57a.55.55,0,0,0,.23,0c1.42-.62.62-4.68-.37-7.22a.64.64,0,0,1,.42-.82c3-1.09,6.4-2.62,7-3.29-.7-.68-4.41-2.22-7.69-3.31A.66.66,0,0,1,262.43,149.6Z" transform="translate(792.79 1.29)"/><path class="cls-9" d="M267.48,178.32c-5.12,0-10.61-9.29-12.68-13.18-3.44,1.54-12.35,5.32-17.28,5.32a5.66,5.66,0,0,1-2.91-.65,2.56,2.56,0,0,1-1.31-2c-.41-3.64,7.14-11,10.42-14-4.6-3.33-12.36-9.67-10.28-13.28.83-1.45,2.84-2.15,6.14-2.15A59.87,59.87,0,0,1,251.19,140c1.75-3.18,6.52-10.89,11.72-10.89a4.19,4.19,0,0,1,2.9,1.15c3.15,2.94,3.1,11.58,3,14.61,16.1,5.45,16.1,7.77,16.1,8.55,0,2-4.87,4.84-14.49,8.41,1.37,3.88,4.24,13.78-1.16,16.15A4.35,4.35,0,0,1,267.48,178.32Zm-12-16.24a1.62,1.62,0,0,1,.48.07,1.41,1.41,0,0,1,.87.7c2.6,5.2,7.77,12.89,10.64,12.89a1.08,1.08,0,0,0,.45-.09c2.78-1.22,1.21-9.17-.73-14.16a1.25,1.25,0,0,1,.83-1.61c5.89-2.13,12.56-5.13,13.8-6.46-1.37-1.34-8.66-4.35-15.07-6.49a1.29,1.29,0,0,1-.94-1.28c.28-4.24,0-11.69-2.13-13.64a1.06,1.06,0,0,0-.77-.34c-3,0-7.37,6.06-9.57,10.37a1.53,1.53,0,0,1-1.74.71,62.46,62.46,0,0,0-12-1.78c-3,0-3.48.66-3.53.73-.76,1.32,4.37,6.56,10.75,11a1.25,1.25,0,0,1,.55.93,1.2,1.2,0,0,1-.42,1c-6.31,5.58-11.41,11.81-10.7,13.06a2.78,2.78,0,0,0,1.29.21c4.42,0,14-4.08,17.28-5.65A1.64,1.64,0,0,1,255.49,162.08Z" transform="translate(792.79 1.29)"/><path class="cls-7" d="M867.11,205.47c-1.69-4-5.4-10.69-8.2-11.73a1.13,1.13,0,0,0-.86,0c-2.7,1-4,8.16-4,12.88a1.36,1.36,0,0,1-1.26,1.27c-.07,0-7.34.9-11.81,2.64-2.76,1.07-2.89,1.84-2.89,1.92-.09,1.47,7,4.45,14.88,6.25a1.44,1.44,0,0,1,.93.66,1.15,1.15,0,0,1,.06,1.05c-3.21,7.34-5,14.85-3.8,15.75a2.78,2.78,0,0,0,1.27-.26c4-1.57,10.91-8.68,13.22-11.29a1.47,1.47,0,0,1,.57-.39,1.64,1.64,0,0,1,1.58.23c4.76,3.84,13,9,15.65,8a1,1,0,0,0,.37-.25c2-2.11-3.1-8.82-7.16-12.7a1.18,1.18,0,0,1,0-1.77c4.41-4,9.14-9.15,9.67-10.81-1.87-.74-9.92-.91-16.77-.59A1.48,1.48,0,0,1,867.11,205.47Z" transform="translate(792.79 1.29)"/><path class="cls-8" d="M865.82,210.28c-.86-2-2.75-5.45-4.18-6a.58.58,0,0,0-.44,0c-1.38.53-2,4.16-2,6.57a.69.69,0,0,1-.64.65,31.59,31.59,0,0,0-6,1.35c-1.41.55-1.47.94-1.47,1,0,.75,3.57,2.27,7.59,3.19a.73.73,0,0,1,.48.34.58.58,0,0,1,0,.54c-1.64,3.74-2.56,7.57-1.94,8a1.42,1.42,0,0,0,.65-.13c2.06-.8,5.57-4.43,6.74-5.76a.75.75,0,0,1,.29-.2.82.82,0,0,1,.24-.05.81.81,0,0,1,.57.17c2.43,2,6.64,4.61,8,4.09a.49.49,0,0,0,.19-.13c1-1.07-1.58-4.5-3.65-6.48a.6.6,0,0,1,0-.9c2.25-2.06,4.66-4.66,4.93-5.51-1-.38-5.06-.47-8.55-.3A.75.75,0,0,1,865.82,210.28Z" transform="translate(792.79 1.29)"/><path class="cls-9" d="M883.61,234.77c-4.69,1.82-14-4.74-17.64-7.56-2.44,2.63-8.86,9.25-13.37,11a5.74,5.74,0,0,1-3,.44,3,3,0,0,1-2.1-1.34c-2-3.18,1.49-12.61,3.11-16.54-5.74-1.42-15.75-4.47-15.5-8.51.1-1.62,1.61-3,4.64-4.14a59.06,59.06,0,0,1,11.36-2.66c.14-3.53,1-12.28,5.73-14.12a4.43,4.43,0,0,1,3.19,0c4.24,1.58,8.14,9.5,9.42,12.32,17.23-.72,18.29,1.4,18.65,2.11.92,1.84-2.24,6.16-9.4,12.83,3,3.06,10.2,11.11,6.35,15.19A3.9,3.9,0,0,1,883.61,234.77ZM865.2,224.17a1.64,1.64,0,0,1,1.58.23c4.76,3.84,13,9,15.65,8a1,1,0,0,0,.37-.25c2-2.11-3.1-8.82-7.16-12.7a1.18,1.18,0,0,1,0-1.77c4.41-4,9.14-9.15,9.67-10.81-1.87-.74-9.92-.91-16.77-.59a1.48,1.48,0,0,1-1.45-.84c-1.69-4-5.4-10.69-8.2-11.73a1.13,1.13,0,0,0-.86,0c-2.7,1-4,8.16-4,12.88a1.36,1.36,0,0,1-1.26,1.27c-.07,0-7.34.9-11.81,2.64-2.76,1.07-2.89,1.84-2.89,1.92-.09,1.47,7,4.45,14.88,6.25a1.44,1.44,0,0,1,.93.66,1.15,1.15,0,0,1,.06,1.05c-3.21,7.34-5,14.85-3.8,15.75a2.78,2.78,0,0,0,1.27-.26c4-1.57,10.91-8.68,13.22-11.29A1.47,1.47,0,0,1,865.2,224.17Z" transform="translate(792.79 1.29)"/><path class="cls-7" d="M736.9,486c-1.69-4-5.4-10.69-8.2-11.73a1.13,1.13,0,0,0-.86,0c-2.7,1-4,8.16-4,12.88a1.36,1.36,0,0,1-1.26,1.27c-.07,0-7.34.9-11.81,2.64-2.76,1.07-2.89,1.84-2.89,1.92-.09,1.47,7,4.45,14.88,6.25a1.44,1.44,0,0,1,.93.66,1.15,1.15,0,0,1,.06,1.05c-3.21,7.34-5,14.85-3.8,15.75a2.78,2.78,0,0,0,1.27-.26c4-1.57,10.91-8.68,13.22-11.29a1.47,1.47,0,0,1,.57-.39,1.64,1.64,0,0,1,1.58.23c4.76,3.84,13,9,15.65,8a1,1,0,0,0,.37-.25c2-2.11-3.1-8.82-7.16-12.7a1.18,1.18,0,0,1,0-1.77c4.41-4,9.14-9.15,9.67-10.81-1.87-.74-9.92-.91-16.77-.59A1.48,1.48,0,0,1,736.9,486Z" transform="translate(792.79 1.29)"/><path class="cls-8" d="M735.61,490.8c-.86-2-2.75-5.45-4.18-6a.58.58,0,0,0-.44,0c-1.38.53-2,4.16-2,6.57a.69.69,0,0,1-.64.65,31.59,31.59,0,0,0-6,1.35c-1.41.55-1.47.94-1.47,1,0,.75,3.57,2.27,7.59,3.19a.74.74,0,0,1,.48.34.58.58,0,0,1,0,.54c-1.64,3.74-2.56,7.57-1.94,8a1.42,1.42,0,0,0,.65-.13c2.06-.8,5.57-4.43,6.74-5.76a.75.75,0,0,1,.29-.2.83.83,0,0,1,.81.12c2.43,2,6.64,4.61,8,4.09a.49.49,0,0,0,.19-.13c1-1.07-1.58-4.5-3.65-6.48a.6.6,0,0,1,0-.9c2.25-2.06,4.66-4.66,4.93-5.51-1-.38-5.06-.47-8.55-.3A.76.76,0,0,1,735.61,490.8Z" transform="translate(792.79 1.29)"/><path class="cls-9" d="M753.4,515.3c-4.69,1.82-14-4.74-17.64-7.56-2.44,2.63-8.86,9.25-13.37,11a5.74,5.74,0,0,1-3,.44,3,3,0,0,1-2.1-1.34c-2-3.18,1.49-12.61,3.11-16.54-5.74-1.42-15.75-4.47-15.5-8.51.1-1.62,1.61-3,4.64-4.14A59.06,59.06,0,0,1,720.92,486c.14-3.53,1-12.28,5.73-14.12a4.43,4.43,0,0,1,3.19,0c4.24,1.58,8.14,9.5,9.42,12.32,17.23-.72,18.29,1.4,18.65,2.11.92,1.84-2.24,6.16-9.4,12.83,3,3.06,10.2,11.11,6.35,15.19A3.9,3.9,0,0,1,753.4,515.3ZM735,504.69a1.64,1.64,0,0,1,1.58.23c4.76,3.84,13,9,15.65,8a1,1,0,0,0,.37-.25c2-2.11-3.1-8.82-7.16-12.7a1.18,1.18,0,0,1,0-1.77c4.41-4,9.14-9.15,9.67-10.81-1.87-.74-9.92-.91-16.77-.59a1.48,1.48,0,0,1-1.45-.84c-1.69-4-5.4-10.69-8.2-11.73a1.13,1.13,0,0,0-.86,0c-2.7,1-4,8.16-4,12.88a1.36,1.36,0,0,1-1.26,1.27c-.07,0-7.34.9-11.81,2.64-2.76,1.07-2.89,1.84-2.89,1.92-.09,1.47,7,4.45,14.88,6.25a1.44,1.44,0,0,1,.93.66,1.15,1.15,0,0,1,.06,1.05c-3.21,7.34-5,14.85-3.8,15.75a2.78,2.78,0,0,0,1.27-.26c4-1.57,10.91-8.68,13.22-11.29A1.47,1.47,0,0,1,735,504.69Z" transform="translate(792.79 1.29)"/><path class="cls-7" d="M1366.41,540.2c-.79-4.19-3-11.39-5.51-12.88a1.11,1.11,0,0,0-.84-.19c-2.88.58-5.66,7.35-6.72,12a1.44,1.44,0,0,1-1.52,1c-.07,0-7.4-.34-12.17.61-2.94.59-3.23,1.32-3.25,1.4-.41,1.43,5.91,5.54,13.25,8.62a1.35,1.35,0,0,1,.78.8,1.15,1.15,0,0,1-.16,1c-4.74,6.67-8.14,13.74-7.14,14.83a2.82,2.82,0,0,0,1.31,0c4.31-.86,12.59-6.7,15.42-8.88a1.56,1.56,0,0,1,.64-.29,1.64,1.64,0,0,1,.48,0,1.52,1.52,0,0,1,1,.51c3.84,4.56,10.83,11.05,13.63,10.49a1,1,0,0,0,.41-.18c2.41-1.74-1.13-9.18-4.28-13.66a1.2,1.2,0,0,1,.4-1.73c5.2-3.23,11-7.45,11.83-9-1.67-1-9.54-2.56-16.33-3.39A1.39,1.39,0,0,1,1366.41,540.2Z" transform="translate(792.79 1.29)"/><path class="cls-8" d="M1364.1,544.71c-.4-2.14-1.52-5.81-2.81-6.57a.57.57,0,0,0-.43-.09c-1.47.29-2.89,3.75-3.43,6.11a.73.73,0,0,1-.77.53,32.17,32.17,0,0,0-6.21.31c-1.5.3-1.65.67-1.66.72-.21.73,3,2.83,6.76,4.4a.69.69,0,0,1,.4.41.59.59,0,0,1-.08.53c-2.42,3.4-4.15,7-3.64,7.56a1.44,1.44,0,0,0,.67,0c2.2-.44,6.42-3.42,7.86-4.53a.79.79,0,0,1,.33-.15.83.83,0,0,1,.25,0,.77.77,0,0,1,.52.26c2,2.33,5.52,5.64,6.95,5.35a.53.53,0,0,0,.21-.09c1.23-.89-.58-4.68-2.18-7a.61.61,0,0,1,.21-.88c2.65-1.65,5.58-3.8,6-4.59-.85-.53-4.86-1.3-8.33-1.73A.71.71,0,0,1,1364.1,544.71Z" transform="translate(792.79 1.29)"/><path class="cls-9" d="M1376.27,571.73c-5,1-12.69-7-15.68-10.38-3,2.18-10.7,7.59-15.51,8.56a5.79,5.79,0,0,1-3-.06,2.77,2.77,0,0,1-1.78-1.66c-1.32-3.47,4.19-12.13,6.63-15.71-5.33-2.35-14.49-7-13.38-10.94.45-1.57,2.23-2.65,5.45-3.29a60.29,60.29,0,0,1,11.73-.72c.9-3.44,3.61-11.89,8.68-12.91a4.37,4.37,0,0,1,3.12.56c3.82,2.26,5.94,10.69,6.58,13.67,17.07,2.17,17.66,4.44,17.85,5.19.51,2-3.53,5.67-12,11,2.31,3.51,7.61,12.61,2.94,16A4.14,4.14,0,0,1,1376.27,571.73Zm-15.78-13.5a1.64,1.64,0,0,1,.48,0,1.52,1.52,0,0,1,1,.51c3.84,4.56,10.83,11.05,13.63,10.49a1,1,0,0,0,.41-.18c2.41-1.74-1.13-9.18-4.28-13.66a1.2,1.2,0,0,1,.4-1.73c5.2-3.23,11-7.45,11.83-9-1.67-1-9.54-2.56-16.33-3.39a1.39,1.39,0,0,1-1.24-1.07c-.79-4.19-3-11.39-5.51-12.88a1.11,1.11,0,0,0-.84-.19c-2.88.58-5.66,7.35-6.72,12a1.44,1.44,0,0,1-1.52,1c-.07,0-7.4-.34-12.17.61-2.94.59-3.23,1.32-3.25,1.4-.41,1.43,5.91,5.54,13.25,8.62a1.35,1.35,0,0,1,.78.8,1.15,1.15,0,0,1-.16,1c-4.74,6.67-8.14,13.74-7.14,14.83a2.82,2.82,0,0,0,1.31,0c4.31-.86,12.59-6.7,15.42-8.88A1.56,1.56,0,0,1,1360.49,558.23Z" transform="translate(792.79 1.29)"/><path class="cls-7" d="M1703,503.63c.1-4.25-.56-11.68-2.73-13.56a1.07,1.07,0,0,0-.79-.32c-2.95.1-7.1,6.31-9.11,10.68a1.52,1.52,0,0,1-1.71.77,62.73,62.73,0,0,0-12.09-1.37c-3,.1-3.45.78-3.49.85-.7,1.34,4.65,6.4,11.23,10.62a1.26,1.26,0,0,1,.59.91,1.19,1.19,0,0,1-.38,1c-6.06,5.79-10.88,12.19-10.12,13.42a2.79,2.79,0,0,0,1.29.17c4.42-.15,13.78-4.55,17-6.23a1.64,1.64,0,0,1,1.17-.12,1.43,1.43,0,0,1,.9.67c2.82,5.11,8.33,12.61,11.2,12.52a1.07,1.07,0,0,0,.44-.11c2.73-1.32.8-9.21-1.35-14.12a1.24,1.24,0,0,1,.76-1.64c5.79-2.33,12.32-5.55,13.51-6.93-1.43-1.3-8.84-4.06-15.35-6A1.31,1.31,0,0,1,1703,503.63Z" transform="translate(792.79 1.29)"/><path class="cls-8" d="M1699.79,507.69c0-2.17-.28-6-1.39-6.91a.55.55,0,0,0-.4-.16c-1.5.05-3.62,3.22-4.64,5.45a.77.77,0,0,1-.87.39,32,32,0,0,0-6.16-.7c-1.54.05-1.76.4-1.78.44-.36.68,2.37,3.26,5.72,5.42a.64.64,0,0,1,.3.47.61.61,0,0,1-.19.51c-3.09,3-5.55,6.21-5.16,6.84a1.42,1.42,0,0,0,.66.08c2.25-.08,7-2.32,8.68-3.18a.84.84,0,0,1,.6-.06.73.73,0,0,1,.46.34c1.44,2.6,4.25,6.43,5.71,6.38a.55.55,0,0,0,.23-.06c1.39-.67.41-4.7-.69-7.2a.63.63,0,0,1,.39-.83c3-1.19,6.28-2.83,6.89-3.53-.73-.66-4.51-2.07-7.83-3A.67.67,0,0,1,1699.79,507.69Z" transform="translate(792.79 1.29)"/><path class="cls-9" d="M1706.1,536.22c-5.12.17-11-8.93-13.25-12.73-3.37,1.66-12.1,5.73-17,5.9a5.7,5.7,0,0,1-2.94-.55,2.59,2.59,0,0,1-1.4-1.92c-.57-3.62,6.65-11.25,9.8-14.37-4.75-3.17-12.78-9.25-10.86-12.92.77-1.47,2.74-2.24,6-2.36a60.09,60.09,0,0,1,11.68,1.19c1.6-3.23,6-11.11,11.23-11.28a4.23,4.23,0,0,1,3,1.05c3.28,2.83,3.6,11.47,3.61,14.5,16.32,4.9,16.43,7.22,16.46,8,.09,2-4.66,5-14.11,8.89,1.54,3.83,4.84,13.62-.45,16.18A4.32,4.32,0,0,1,1706.1,536.22Zm-12.69-15.82a1.63,1.63,0,0,1,.48.05,1.43,1.43,0,0,1,.9.67c2.82,5.11,8.33,12.61,11.2,12.52a1.07,1.07,0,0,0,.44-.11c2.73-1.32.8-9.21-1.35-14.12a1.24,1.24,0,0,1,.76-1.64c5.79-2.33,12.32-5.55,13.51-6.93-1.43-1.3-8.84-4.06-15.35-6a1.31,1.31,0,0,1-1-1.25c.1-4.25-.56-11.68-2.73-13.56a1.07,1.07,0,0,0-.79-.32c-2.95.1-7.1,6.31-9.11,10.68a1.52,1.52,0,0,1-1.71.77,62.73,62.73,0,0,0-12.09-1.37c-3,.1-3.45.78-3.49.85-.7,1.34,4.65,6.4,11.23,10.62a1.26,1.26,0,0,1,.59.91,1.19,1.19,0,0,1-.38,1c-6.06,5.79-10.88,12.19-10.12,13.42a2.79,2.79,0,0,0,1.29.17c4.42-.15,13.78-4.55,17-6.23A1.63,1.63,0,0,1,1693.41,520.4Z" transform="translate(792.79 1.29)"/><path class="cls-7" d="M391.52,571c-2.31-3.73-7.05-9.91-10-10.6a1.12,1.12,0,0,0-.86.07c-2.51,1.37-2.63,8.57-1.91,13.25a1.3,1.3,0,0,1-1,1.41c-.07,0-7.12,1.8-11.28,4.07-2.56,1.4-2.56,2.18-2.55,2.26.15,1.47,7.64,3.54,15.73,4.35a1.51,1.51,0,0,1,1,.54,1.16,1.16,0,0,1,.23,1c-2,7.67-2.6,15.32-1.24,16.06a2.72,2.72,0,0,0,1.22-.42c3.76-2.05,9.42-9.95,11.28-12.82a1.39,1.39,0,0,1,.5-.46,1.56,1.56,0,0,1,.45-.16,1.63,1.63,0,0,1,1.16.19c5.32,3.21,14.34,7.34,16.77,6a.92.92,0,0,0,.33-.29c1.63-2.33-4.48-8.35-9.12-11.69a1.19,1.19,0,0,1-.26-1.75c3.72-4.55,7.59-10.19,7.85-11.9-2-.5-10,.32-16.7,1.49A1.54,1.54,0,0,1,391.52,571Z" transform="translate(792.79 1.29)"/><path class="cls-8" d="M391,575.92c-1.18-1.9-3.6-5.05-5.1-5.4a.57.57,0,0,0-.44,0c-1.28.7-1.34,4.37-1,6.75a.66.66,0,0,1-.54.72,30.73,30.73,0,0,0-5.75,2.08c-1.31.71-1.31,1.11-1.3,1.15.08.75,3.9,1.81,8,2.22a.77.77,0,0,1,.53.27.59.59,0,0,1,.12.53c-1,3.91-1.33,7.81-.63,8.19a1.39,1.39,0,0,0,.62-.21c1.92-1,4.8-5.07,5.75-6.53a.71.71,0,0,1,.25-.23.8.8,0,0,1,.23-.08.83.83,0,0,1,.59.1c2.72,1.64,7.31,3.74,8.55,3.06a.47.47,0,0,0,.17-.15c.83-1.19-2.28-4.26-4.65-6a.61.61,0,0,1-.13-.89c1.9-2.32,3.87-5.19,4-6.07-1-.26-5.08.16-8.51.76A.78.78,0,0,1,391,575.92Z" transform="translate(792.79 1.29)"/><path class="cls-9" d="M412.55,598c-4.35,2.38-14.59-3-18.68-5.31-2,2.91-7.29,10.25-11.48,12.54a5.62,5.62,0,0,1-2.86.8,3.09,3.09,0,0,1-2.3-1.06c-2.54-2.9-.54-12.67.43-16.76-5.91-.69-16.31-2.48-16.71-6.51-.16-1.61,1.12-3.14,3.93-4.68a57.33,57.33,0,0,1,10.82-4c-.42-3.51-1-12.28,3.41-14.69a4.4,4.4,0,0,1,3.16-.37c4.45,1,9.58,8.4,11.29,11,16.94-2.84,18.34-.87,18.8-.21,1.21,1.71-1.23,6.37-7.26,13.87,3.49,2.66,11.87,9.73,8.71,14.25A3.7,3.7,0,0,1,412.55,598Zm-19.92-8.23a1.56,1.56,0,0,1,.45-.16,1.63,1.63,0,0,1,1.16.19c5.32,3.21,14.34,7.34,16.77,6a.92.92,0,0,0,.33-.29c1.63-2.33-4.48-8.35-9.12-11.69a1.19,1.19,0,0,1-.26-1.75c3.72-4.55,7.59-10.19,7.85-11.9-2-.5-10,.32-16.7,1.49a1.54,1.54,0,0,1-1.57-.65c-2.31-3.73-7.05-9.91-10-10.6a1.12,1.12,0,0,0-.86.07c-2.51,1.37-2.63,8.57-1.91,13.25a1.3,1.3,0,0,1-1,1.41c-.07,0-7.12,1.8-11.28,4.07-2.56,1.4-2.56,2.18-2.55,2.26.15,1.47,7.64,3.54,15.73,4.35a1.51,1.51,0,0,1,1,.54,1.16,1.16,0,0,1,.23,1c-2,7.67-2.6,15.32-1.24,16.06a2.72,2.72,0,0,0,1.22-.42c3.76-2.05,9.42-9.95,11.28-12.82A1.39,1.39,0,0,1,392.63,589.74Z" transform="translate(792.79 1.29)"/><path class="cls-7" d="M1412.71,144.62c.28-4.24,0-11.69-2.13-13.64a1.06,1.06,0,0,0-.77-.34c-3,0-7.37,6.06-9.57,10.37a1.53,1.53,0,0,1-1.74.71,62.47,62.47,0,0,0-12-1.78c-3,0-3.48.66-3.53.73-.76,1.32,4.37,6.56,10.75,11a1.25,1.25,0,0,1,.55.93,1.2,1.2,0,0,1-.42,1c-6.31,5.58-11.41,11.81-10.7,13.06a2.78,2.78,0,0,0,1.29.21c4.42,0,14-4.08,17.28-5.65a1.64,1.64,0,0,1,.7-.15,1.62,1.62,0,0,1,.48.07,1.41,1.41,0,0,1,.87.7c2.6,5.2,7.77,12.89,10.64,12.89a1.08,1.08,0,0,0,.45-.09c2.78-1.22,1.21-9.17-.73-14.16a1.25,1.25,0,0,1,.83-1.61c5.89-2.13,12.56-5.13,13.8-6.46-1.37-1.34-8.66-4.35-15.07-6.49A1.29,1.29,0,0,1,1412.71,144.62Z" transform="translate(792.79 1.29)"/><path class="cls-8" d="M1409.33,148.57c.14-2.16,0-6-1.09-7a.54.54,0,0,0-.39-.18c-1.51,0-3.76,3.09-4.88,5.29a.78.78,0,0,1-.89.36,31.85,31.85,0,0,0-6.13-.91c-1.54,0-1.78.34-1.8.37-.39.67,2.23,3.34,5.48,5.61a.64.64,0,0,1,.28.48.61.61,0,0,1-.22.5c-3.22,2.85-5.82,6-5.46,6.66a1.41,1.41,0,0,0,.66.11c2.25,0,7.12-2.08,8.81-2.88a.84.84,0,0,1,.36-.08.83.83,0,0,1,.24,0,.72.72,0,0,1,.44.36c1.32,2.65,4,6.57,5.43,6.57a.55.55,0,0,0,.23,0c1.42-.62.62-4.68-.37-7.22a.64.64,0,0,1,.42-.82c3-1.09,6.4-2.62,7-3.29-.7-.68-4.41-2.22-7.69-3.31A.66.66,0,0,1,1409.33,148.57Z" transform="translate(792.79 1.29)"/><path class="cls-9" d="M1414.38,177.29c-5.12,0-10.61-9.29-12.68-13.18-3.44,1.54-12.35,5.32-17.28,5.32a5.67,5.67,0,0,1-2.91-.65,2.56,2.56,0,0,1-1.31-2c-.41-3.64,7.14-11,10.42-14-4.6-3.33-12.36-9.67-10.29-13.28.83-1.45,2.84-2.15,6.14-2.15a59.87,59.87,0,0,1,11.61,1.59c1.75-3.18,6.52-10.89,11.72-10.89a4.19,4.19,0,0,1,2.9,1.15c3.15,2.94,3.1,11.58,3,14.61,16.1,5.45,16.1,7.77,16.1,8.55,0,2-4.87,4.84-14.49,8.41,1.37,3.88,4.24,13.78-1.16,16.15A4.34,4.34,0,0,1,1414.38,177.29Zm-12-16.24a1.62,1.62,0,0,1,.48.07,1.41,1.41,0,0,1,.87.7c2.6,5.2,7.77,12.89,10.64,12.89a1.08,1.08,0,0,0,.45-.09c2.78-1.22,1.21-9.17-.73-14.16a1.25,1.25,0,0,1,.83-1.61c5.89-2.13,12.56-5.13,13.8-6.46-1.37-1.34-8.66-4.35-15.07-6.49a1.29,1.29,0,0,1-.94-1.28c.28-4.24,0-11.69-2.13-13.64a1.06,1.06,0,0,0-.77-.34c-3,0-7.37,6.06-9.57,10.37a1.53,1.53,0,0,1-1.74.71,62.47,62.47,0,0,0-12-1.78c-3,0-3.48.66-3.53.73-.76,1.32,4.37,6.56,10.75,11a1.25,1.25,0,0,1,.55.93,1.2,1.2,0,0,1-.42,1c-6.31,5.58-11.41,11.81-10.7,13.06a2.78,2.78,0,0,0,1.29.21c4.42,0,14-4.08,17.28-5.65A1.64,1.64,0,0,1,1402.4,161.06Z" transform="translate(792.79 1.29)"/><path class="cls-9" d="M1740.43,154.75h-1.49c-116.42-.35-217.05-42.16-281-77.18-64.45-35.3-105.57-71-111.29-76.07A1566.13,1566.13,0,0,1,962.58,79a1556.79,1556.79,0,0,1-313-8.64C481.23,48.52,372.84,5.52,362.89,1.47,239.85,70.26,128.23,94.11,56.2,102c-78.24,8.57-128,.66-128.51.58a1.31,1.31,0,0,1-1.17-1.5,1.46,1.46,0,0,1,1.71-1c.49.08,49.92,7.92,127.75-.62C127.81,91.54,239.2,67.71,362-1.09a1.64,1.64,0,0,1,1.42-.08c1.09.46,111.22,46.24,286.68,69,161.92,21,414.17,26,696.43-69a1.61,1.61,0,0,1,1.58.31c.42.38,42.53,38.56,111.48,76.32,63.59,34.82,163.68,76.4,279.38,76.74h1.45c130.49,0,253.76-51.49,366.44-153.07a1.61,1.61,0,0,1,2.07,0,1.18,1.18,0,0,1,0,1.82C1995.72,103,1871.73,154.75,1740.43,154.75Z" transform="translate(792.79 1.29)"/><path class="cls-9" d="M429.74,428.53a1363.42,1363.42,0,0,1-141.25-7c-120.74-12.6-225.36-42.26-311-88.17a1.2,1.2,0,0,1-.49-1.77,1.58,1.58,0,0,1,2-.43C172.15,434.7,426.66,434.83,606.16,416.7,800.74,397.05,951.51,352.32,953,351.87a1.62,1.62,0,0,1,.84,0C1386.69,450.11,1696,413,1879.18,364.56c198.4-52.45,295.69-129,296.65-129.8a1.62,1.62,0,0,1,2.07.09,1.18,1.18,0,0,1-.1,1.82c-1,.77-98.74,77.74-297.77,130.36-116.84,30.89-245.23,47.49-381.61,49.33-170.3,2.3-353.63-18.53-544.88-61.92-9,2.64-157.21,45.66-347,64.83A1762.73,1762.73,0,0,1,429.74,428.53Z" transform="translate(792.79 1.29)"/><path class="cls-7" d="M607.38,758.56c5.44-3.21,16.19,12.88,16.19,12.88s20.4-4.17,22.17-1.85-9.06,16.55-9.06,16.55,15.59,10.43,12.08,15.86-23.51-5.77-23.51-5.77-10.38,17.33-16.11,17.34-1-21.39-1-21.39-20.26-1.4-20.91-6.07,17.7-9.87,17.7-9.87S602.1,761.67,607.38,758.56Z" transform="translate(792.79 1.29)"/><path class="cls-7" d="M561.25,868.17c4.34.21,2.75,12.52,2.75,12.52s12.73,4.95,12.61,6.8-12.32,5.61-12.32,5.61,3.54,11-.78,12.66-9.87-11.32-9.87-11.32S540.26,900,537.21,898s9.18-11.7,9.18-11.7-10.12-7.86-8.35-10.56,13.87,1,13.87,1S557,868,561.25,868.17Z" transform="translate(792.79 1.29)"/><path class="cls-7" d="M1160.45,758.56c-5.44-3.21-16.19,12.88-16.19,12.88s-20.4-4.17-22.17-1.85,9.06,16.55,9.06,16.55-15.59,10.43-12.08,15.86,23.51-5.77,23.51-5.77,10.38,17.33,16.11,17.34,1-21.39,1-21.39,20.26-1.4,20.91-6.07-17.7-9.87-17.7-9.87S1165.73,761.67,1160.45,758.56Z" transform="translate(792.79 1.29)"/><path class="cls-7" d="M1192.2,868.17c-4.34.21-2.75,12.52-2.75,12.52s-12.73,4.95-12.61,6.8,12.32,5.61,12.32,5.61-3.54,11,.78,12.66,9.87-11.32,9.87-11.32,13.38,5.55,16.42,3.55-9.18-11.7-9.18-11.7,10.12-7.86,8.35-10.56-13.87,1-13.87,1S1196.42,868,1192.2,868.17Z" transform="translate(792.79 1.29)"/><path class="cls-7" d="M526.12,161.32c-10.08,0-10.08,13.74,0,13.74S536.19,161.32,526.12,161.32Z" transform="translate(792.79 1.29)"/><path class="cls-7" d="M473.36,258.53c-6.42,0-6.42,8.76,0,8.76S479.79,258.53,473.36,258.53Z" transform="translate(792.79 1.29)"/><path class="cls-7" d="M370.06,279.34c-7.09,0-7.09,9.67,0,9.67S377.15,279.34,370.06,279.34Z" transform="translate(792.79 1.29)"/><path class="cls-7" d="M336.93,207.48a1.35,1.35,0,0,0-.69.11,3.82,3.82,0,0,0-3.72.71,2.94,2.94,0,0,0-.93,3.09,3.61,3.61,0,0,0,2.52,2.22,4.87,4.87,0,0,0,3.51-.32,3.4,3.4,0,0,0,2-2.88A2.81,2.81,0,0,0,336.93,207.48Z" transform="translate(792.79 1.29)"/><path class="cls-7" d="M326.1,98.39c-6,0-6,8.16,0,8.16S332.08,98.39,326.1,98.39Z" transform="translate(792.79 1.29)"/><path class="cls-7" d="M592.71,223.67l-1-1a6.18,6.18,0,0,0-5.51-1.28,5.18,5.18,0,0,0-4.16,4.81,4.94,4.94,0,0,0,2.81,4.3,6.27,6.27,0,0,0,6.87-.78l1-1A3.32,3.32,0,0,0,592.71,223.67Z" transform="translate(792.79 1.29)"/><path class="cls-7" d="M651.77,353a5.13,5.13,0,0,0-2.38-2.83c-3.58-1.85-8,1.18-6.94,4.69a4.51,4.51,0,0,0,3.3,2.9c1.91.46,4.43-.25,5.33-1.91A3.57,3.57,0,0,0,651.77,353Z" transform="translate(792.79 1.29)"/><path class="cls-7" d="M784.4,315.63l-.76-.51a5.55,5.55,0,0,0-5.11,0,4.2,4.2,0,0,0,0,7.69,5.55,5.55,0,0,0,5.11,0l.76-.51c1.27-.86,2.18-1.84,2.18-3.34S785.67,316.49,784.4,315.63Z" transform="translate(792.79 1.29)"/><path class="cls-7" d="M787.68,196.87c-9,0-9,12.23,0,12.23S796.65,196.87,787.68,196.87Z" transform="translate(792.79 1.29)"/><path class="cls-7" d="M544.71,371.16c0-2.59-2.46-4.76-5.41-4.76s-5.41,2.16-5.41,4.76a4.57,4.57,0,0,0,2.68,4,4.13,4.13,0,0,0,5.45,0A4.57,4.57,0,0,0,544.71,371.16Z" transform="translate(792.79 1.29)"/><path class="cls-7" d="M475.57,540.37a6.07,6.07,0,0,0-2.28-2l-.76-.51a7.89,7.89,0,0,0-7.11,0,5.84,5.84,0,0,0,0,10.69,7.89,7.89,0,0,0,7.11,0l.76-.51a6.07,6.07,0,0,0,2.28-2,5,5,0,0,0,0-5.65Z" transform="translate(792.79 1.29)"/><path class="cls-7" d="M475.89,647.3a4.62,4.62,0,0,0-5.84,0l-1.91,1.48a3.48,3.48,0,0,0,0,5.34,4.74,4.74,0,0,0,6.07,0l1.68-1.68A3.38,3.38,0,0,0,475.89,647.3Z" transform="translate(792.79 1.29)"/><path class="cls-7" d="M589.55,704.61a5.37,5.37,0,0,0-3.52-1.28,5.81,5.81,0,0,0-5.41,4,4.74,4.74,0,0,0,0,2.67,5.56,5.56,0,0,0,1.53,2.35c1.73,1.84,5.26,1.57,7,0a4.16,4.16,0,0,0,1.43-2.87A4.21,4.21,0,0,0,589.55,704.61Z" transform="translate(792.79 1.29)"/><path class="cls-7" d="M644.81,640.29c-3.32,0-6.1,2.44-6.1,5.36s2.77,5.36,6.1,5.36,6.1-2.44,6.1-5.36S648.13,640.29,644.81,640.29Z" transform="translate(792.79 1.29)"/><path class="cls-7" d="M693.16,570.17c-8.64,0-8.64,11.78,0,11.78S701.8,570.17,693.16,570.17Z" transform="translate(792.79 1.29)"/><path class="cls-7" d="M853.44,582.77l-.29-1.62c-.28-1.55-2.27-2.63-3.93-2.63s-3.65,1.08-3.93,2.63l-.29,1.62a3.72,3.72,0,0,0,.44,3,4.56,4.56,0,0,0,3.78,1.91,4.72,4.72,0,0,0,3.1-1.13A3.7,3.7,0,0,0,853.44,582.77Z" transform="translate(792.79 1.29)"/><path class="cls-7" d="M926.15,634.94c-3,0-5.58,2.23-5.58,4.91s2.54,4.91,5.58,4.91,5.58-2.23,5.58-4.91S929.19,634.94,926.15,634.94Z" transform="translate(792.79 1.29)"/><path class="cls-7" d="M1025.06,561c-8,0-8,10.87,0,10.87S1033,561,1025.06,561Z" transform="translate(792.79 1.29)"/><path class="cls-7" d="M806.43,468l-.1-.05a3.68,3.68,0,0,0-2.41-1.47L802,466.1c-2.71-.5-5.43,1.07-5.43,3.64s2.73,4.14,5.43,3.64l1.92-.35a3.68,3.68,0,0,0,2.41-1.47l.1-.05A1.94,1.94,0,0,0,806.43,468Z" transform="translate(792.79 1.29)"/><path class="cls-7" d="M947.43,289.46a4.83,4.83,0,0,0-1-1.16,6.26,6.26,0,0,0-4.11-1.5c-3.17,0-5.81,2.32-5.81,5.11s2.64,5.11,5.81,5.11a6.26,6.26,0,0,0,4.11-1.5,4.82,4.82,0,0,0,1-1.16A3.88,3.88,0,0,0,947.43,289.46Z" transform="translate(792.79 1.29)"/><path class="cls-7" d="M1060.23,327.89l-1.92.07c-2.81.1-5.16,2-5.16,4.54s2.35,4.44,5.16,4.54l1.92.07a4.64,4.64,0,1,0,0-9.21Z" transform="translate(792.79 1.29)"/><path class="cls-7" d="M1131.94,225a5.19,5.19,0,0,0-3.58-1.3l-1.92.2a5.64,5.64,0,0,0-3.42,1.25,3.9,3.9,0,0,0,0,6,5.64,5.64,0,0,0,3.42,1.25l1.92.2a5.2,5.2,0,0,0,3.58-1.3,4.09,4.09,0,0,0,0-6.3Z" transform="translate(792.79 1.29)"/><path class="cls-7" d="M1118.13,138.48l-1.78.46a4.17,4.17,0,0,0,0,8.26l1.78.46c3.39.88,6.85-1.53,6.85-4.59S1121.52,137.6,1118.13,138.48Z" transform="translate(792.79 1.29)"/><path class="cls-7" d="M880,152.44l-1.92-.07a4.26,4.26,0,1,0,0,8.44l1.92-.07c2.57-.09,4.72-1.82,4.72-4.15S882.56,152.53,880,152.44Z" transform="translate(792.79 1.29)"/><path class="cls-7" d="M1176,225.42l-.64-.8a3.84,3.84,0,0,0-4-1.42,3,3,0,0,0,0,6,3.84,3.84,0,0,0,4-1.42l.64-.8A1.32,1.32,0,0,0,1176,225.42Z" transform="translate(792.79 1.29)"/><path class="cls-7" d="M1271.23,313.46c-3.42,0-6.27,2.51-6.27,5.51s2.85,5.51,6.27,5.51,6.27-2.51,6.27-5.51S1274.65,313.46,1271.23,313.46Z" transform="translate(792.79 1.29)"/><path class="cls-7" d="M1336.64,255.66l-1.77-.48c-4.27-1.16-8.65,2-8.65,5.8s4.38,7,8.65,5.79l1.77-.48c2.68-.72,4.6-2.81,4.6-5.32S1339.32,256.39,1336.64,255.66Z" transform="translate(792.79 1.29)"/><path class="cls-7" d="M1367.52,111.17a4.11,4.11,0,0,0-4-2.66,4.29,4.29,0,0,0-3.56,1.8c-1,1.53-.52,3.09.64,4.39l.6.68a3.56,3.56,0,0,0,4.62,0l.6-.68A3.49,3.49,0,0,0,1367.52,111.17Z" transform="translate(792.79 1.29)"/><path class="cls-7" d="M1519.6,232.19c-8.19,0-8.19,11.18,0,11.18S1527.8,232.19,1519.6,232.19Z" transform="translate(792.79 1.29)"/><path class="cls-7" d="M1452,306.62c-.84-.93-2.38-1.25-3.6-1.69a5.53,5.53,0,0,0-4,.46,4.49,4.49,0,0,0-2.55,3.91,4.29,4.29,0,0,0,1.51,3.2,5.53,5.53,0,0,0,5,1.17c1.22-.44,2.76-.76,3.6-1.69a3.47,3.47,0,0,0,0-5.36Z" transform="translate(792.79 1.29)"/><path class="cls-7" d="M1535.46,372.68a4.28,4.28,0,0,0-3.68-.85l-1.56.27a3,3,0,0,0,0,5.87l1.56.27a4.46,4.46,0,0,0,2.91-.33,3.3,3.3,0,0,0,1.87-2.87A3.15,3.15,0,0,0,1535.46,372.68Z" transform="translate(792.79 1.29)"/><path class="cls-7" d="M1684.45,368.41c-6.87,0-6.87,9.36,0,9.36S1691.32,368.41,1684.45,368.41Z" transform="translate(792.79 1.29)"/><path class="cls-7" d="M1731.94,262.8a5.42,5.42,0,0,0-1.35-1.8,6.66,6.66,0,0,0-4.37-1.59,6.81,6.81,0,0,0-3.12.74,5.62,5.62,0,0,0-2.48,2.52,5.78,5.78,0,0,0-1.23,5.53,7.07,7.07,0,0,0,6.83,4.57,7.38,7.38,0,0,0,6.12-3.09A5.77,5.77,0,0,0,1731.94,262.8Z" transform="translate(792.79 1.29)"/><path class="cls-7" d="M1632.7,519.87c-4.22,0-7.75,3.1-7.75,6.81s3.52,6.81,7.75,6.81,7.75-3.1,7.75-6.81S1636.92,519.87,1632.7,519.87Z" transform="translate(792.79 1.29)"/><path class="cls-7" d="M1480,580.4a3.41,3.41,0,1,0,0,6.8A3.41,3.41,0,1,0,1480,580.4Z" transform="translate(792.79 1.29)"/><path class="cls-7" d="M1509,693.14a2.67,2.67,0,0,0-1.18-1.25,3,3,0,0,0-2.13-.22l-.67-.05a5.57,5.57,0,0,0-4.75,2.4l-.85,1.35a4.65,4.65,0,0,0,2,6.72,6.3,6.3,0,0,0,4.3.49,5.32,5.32,0,0,0,3.34-2.26l.72-1.42A4.58,4.58,0,0,0,1509,693.14Z" transform="translate(792.79 1.29)"/><path class="cls-7" d="M1592.63,706.32l-.75-1.75a4.48,4.48,0,0,0-8.28,0l-.75,1.75a3.87,3.87,0,0,0,.51,3.43,5.27,5.27,0,0,0,4.37,2.21,5.46,5.46,0,0,0,3.58-1.3A4,4,0,0,0,1592.63,706.32Z" transform="translate(792.79 1.29)"/><path class="cls-7" d="M1660.35,605.49a8.3,8.3,0,0,0-13.35,0,6.22,6.22,0,0,0,0,6.86,6.13,6.13,0,0,0,.74,1l.22.45a6.31,6.31,0,0,0,2.37,2.09,7.41,7.41,0,0,0,6.67,0,6.3,6.3,0,0,0,2.37-2.09l.22-.45a6.12,6.12,0,0,0,.74-1A6.22,6.22,0,0,0,1660.35,605.49Z" transform="translate(792.79 1.29)"/><path class="cls-7" d="M1312.32,497.73a6.28,6.28,0,0,0-4.33.51,5.35,5.35,0,0,0-3,1.22,4.09,4.09,0,0,0,0,6.3,5.29,5.29,0,0,0,2.91,1.21,6.17,6.17,0,0,0,2.87.7c3.14,0,5.75-2.3,5.75-5.06A5.25,5.25,0,0,0,1312.32,497.73Z" transform="translate(792.79 1.29)"/><path class="cls-7" d="M1288.81,614.21c-6.42,0-6.42,8.76,0,8.76S1295.24,614.21,1288.81,614.21Z" transform="translate(792.79 1.29)"/><path class="cls-7" d="M1194.3,668.94c-5.54,0-5.54,7.55,0,7.55S1199.84,668.94,1194.3,668.94Z" transform="translate(792.79 1.29)"/><path class="cls-7" d="M1093.19,640.55a3.19,3.19,0,1,0,0,6.34A3.19,3.19,0,1,0,1093.19,640.55Z" transform="translate(792.79 1.29)"/><path class="cls-7" d="M1083.33,513.46a5.17,5.17,0,0,0-6.65,0,3.72,3.72,0,0,0-1.38,2.92l.23,1.69a4,4,0,0,0,1.31,2.78,4.91,4.91,0,0,0,6.31,0,4,4,0,0,0,1.31-2.78l.23-1.69A3.72,3.72,0,0,0,1083.33,513.46Z" transform="translate(792.79 1.29)"/><path class="cls-7" d="M317.31,533.14c-9.08,0-9.08,12.38,0,12.38S326.39,533.14,317.31,533.14Z" transform="translate(792.79 1.29)"/><path class="cls-7" d="M330.33,615.52a4.71,4.71,0,0,0-4.07,0,13.41,13.41,0,0,0-1.28.55,2.77,2.77,0,0,0,0,5,13.34,13.34,0,0,0,1.28.55,4.71,4.71,0,0,0,4.07,0,3.35,3.35,0,0,0,0-6.13Z" transform="translate(792.79 1.29)"/><path class="cls-7" d="M247,669.93c-9.75,0-9.75,13.29,0,13.29S256.72,669.93,247,669.93Z" transform="translate(792.79 1.29)"/><path class="cls-7" d="M143.67,728.94c-5.43,0-5.43,7.4,0,7.4S149.09,728.94,143.67,728.94Z" transform="translate(792.79 1.29)"/><path class="cls-7" d="M107.88,547l-2.63.55a3.36,3.36,0,0,0-1.74,5.81c2,1.8,5.91,1,6.6-1.53l.62-2.31C111.15,548,109.63,546.67,107.88,547Z" transform="translate(792.79 1.29)"/><path class="cls-7" d="M132.68,469.83c-5.54,0-5.54,7.55,0,7.55S138.21,469.83,132.68,469.83Z" transform="translate(792.79 1.29)"/><path class="cls-7" d="M172.39,322.08c-4.06,1-6.51,4.79-5.4,8.36a7,7,0,0,0,3.55,4.06c1.44.74,3.75,1.43,5.41.87a10.71,10.71,0,0,0,4-1.93,6.43,6.43,0,0,0,2.26-4.81C182.17,324.21,177.23,320.91,172.39,322.08Z" transform="translate(792.79 1.29)"/><path class="cls-7" d="M219.81,264.2a5.78,5.78,0,0,0-6,2.15l-.23.3a3.59,3.59,0,0,0,0,4.12l.23.3a5.78,5.78,0,0,0,6,2.15,4.56,4.56,0,0,0,0-9Z" transform="translate(792.79 1.29)"/><path class="cls-7" d="M225.4,190.22l-.75-1.75a4.39,4.39,0,0,0-8.11,0l-.75,1.75a3.8,3.8,0,0,0,.5,3.37,5.19,5.19,0,0,0,4.3,2.17,5.37,5.37,0,0,0,3.52-1.28A4,4,0,0,0,225.4,190.22Z" transform="translate(792.79 1.29)"/><path class="cls-7" d="M194.22,107.86a2.35,2.35,0,1,0,0,4.68A2.35,2.35,0,1,0,194.22,107.86Z" transform="translate(792.79 1.29)"/><path class="cls-7" d="M600.06,134.74a9.83,9.83,0,0,0-2.58-.75c-2.43-.52-4.89,1-4.89,3.28s2.46,3.8,4.89,3.28a9.82,9.82,0,0,0,2.58-.75A2.79,2.79,0,0,0,600.06,134.74Z" transform="translate(792.79 1.29)"/><path class="cls-7" d="M436.42,337.75a5.81,5.81,0,0,0-4.82-2.43,6,6,0,0,0-3.95,1.44c-1.27,1.12-2.18,3.22-1.44,4.78l.83,1.73a4.07,4.07,0,0,0,1.21,1.83,5.09,5.09,0,0,0,3.34,1.22,5.2,5.2,0,0,0,2.38-.57,4.7,4.7,0,0,0,2.17-2.48l.83-1.73A4.21,4.21,0,0,0,436.42,337.75Z" transform="translate(792.79 1.29)"/><path class="cls-7" d="M1367.94,364.77c-6.53,0-6.53,8.91,0,8.91S1374.48,364.77,1367.94,364.77Z" transform="translate(792.79 1.29)"/><path class="cls-7" d="M1416.3,461.32c-9.52,0-9.52,13,0,13S1425.82,461.32,1416.3,461.32Z" transform="translate(792.79 1.29)"/></g></g><g id="Designed_by_Freepik" data-name="Designed by Freepik"><path class="cls-9" d="M-784.72,781.35v-.27a6.85,6.85,0,0,1-1.08,1,4,4,0,0,1-1.15.6,4.3,4.3,0,0,1-1.36.21,4,4,0,0,1-1.8-.41,4.2,4.2,0,0,1-1.44-1.18,5.35,5.35,0,0,1-.92-1.8,7.68,7.68,0,0,1-.31-2.24,5.84,5.84,0,0,1,1.24-4,4.13,4.13,0,0,1,3.27-1.42,4.43,4.43,0,0,1,2,.4,5.56,5.56,0,0,1,1.57,1.24v-4a2,2,0,0,1,.33-1.26,1.13,1.13,0,0,1,.95-.43,1.18,1.18,0,0,1,1,.39,1.75,1.75,0,0,1,.33,1.16v12a1.66,1.66,0,0,1-.36,1.16,1.2,1.2,0,0,1-.93.39,1.19,1.19,0,0,1-.92-.4A1.67,1.67,0,0,1-784.72,781.35Zm-5.34-4a4.65,4.65,0,0,0,.34,1.88,2.59,2.59,0,0,0,.94,1.17,2.3,2.3,0,0,0,1.3.39,2.39,2.39,0,0,0,1.31-.37,2.55,2.55,0,0,0,.94-1.14,4.6,4.6,0,0,0,.36-1.92,4.49,4.49,0,0,0-.36-1.87,2.8,2.8,0,0,0-1-1.19,2.28,2.28,0,0,0-1.32-.41,2.23,2.23,0,0,0-1.33.42,2.68,2.68,0,0,0-.91,1.21A4.81,4.81,0,0,0-790.06,777.36Z" transform="translate(792.79 1.29)"/><path class="cls-9" d="M-772.75,778.05h-5.31a3.56,3.56,0,0,0,.37,1.63,2.54,2.54,0,0,0,1,1.06,2.54,2.54,0,0,0,1.33.36,3.27,3.27,0,0,0,.89-.11,3,3,0,0,0,.78-.36,6,6,0,0,0,.69-.52c.21-.19.49-.44.83-.76a.89.89,0,0,1,.6-.18,1,1,0,0,1,.67.23.82.82,0,0,1,.26.65,1.78,1.78,0,0,1-.29.86,3.53,3.53,0,0,1-.87.95,5.08,5.08,0,0,1-1.46.75,6.32,6.32,0,0,1-2,.3,5.41,5.41,0,0,1-4.07-1.49,5.54,5.54,0,0,1-1.45-4,6.71,6.71,0,0,1,.36-2.23,5,5,0,0,1,1-1.77,4.55,4.55,0,0,1,1.69-1.13,6.06,6.06,0,0,1,2.23-.39,5.26,5.26,0,0,1,2.73.67,4.39,4.39,0,0,1,1.7,1.73,4.58,4.58,0,0,1,.57,2.17,1.36,1.36,0,0,1-.58,1.33A3.68,3.68,0,0,1-772.75,778.05Zm-5.31-1.54h4.92a3.3,3.3,0,0,0-.75-2.08,2.24,2.24,0,0,0-1.71-.69,2.17,2.17,0,0,0-1.67.7A3.49,3.49,0,0,0-778.06,776.51Z" transform="translate(792.79 1.29)"/><path class="cls-9" d="M-760.39,779.35a3.32,3.32,0,0,1-.55,1.93,3.33,3.33,0,0,1-1.62,1.21,7.23,7.23,0,0,1-2.6.41,6.33,6.33,0,0,1-2.51-.45,3.67,3.67,0,0,1-1.54-1.12,2.27,2.27,0,0,1-.5-1.35,1,1,0,0,1,.32-.77,1.09,1.09,0,0,1,.8-.32,1,1,0,0,1,.66.21,2.38,2.38,0,0,1,.44.59,3,3,0,0,0,1,1.08,3,3,0,0,0,1.59.36,2.3,2.3,0,0,0,1.34-.36,1,1,0,0,0,.52-.83,1.13,1.13,0,0,0-.54-1,6.73,6.73,0,0,0-1.79-.63,14.79,14.79,0,0,1-2.28-.73,3.73,3.73,0,0,1-1.41-1,2.32,2.32,0,0,1-.53-1.54,2.71,2.71,0,0,1,.49-1.54,3.34,3.34,0,0,1,1.44-1.16,5.46,5.46,0,0,1,2.29-.44,7.47,7.47,0,0,1,1.89.22,4.65,4.65,0,0,1,1.4.59,2.87,2.87,0,0,1,.86.81,1.59,1.59,0,0,1,.29.88,1,1,0,0,1-.31.77,1.25,1.25,0,0,1-.89.3,1.08,1.08,0,0,1-.71-.24,4.72,4.72,0,0,1-.67-.71,2.39,2.39,0,0,0-.72-.64,2.27,2.27,0,0,0-1.13-.24,2.2,2.2,0,0,0-1.22.31.91.91,0,0,0-.49.78.85.85,0,0,0,.36.7,3,3,0,0,0,1,.45c.4.12,1,.26,1.67.44A9,9,0,0,1-762,777a3.41,3.41,0,0,1,1.21,1A2.22,2.22,0,0,1-760.39,779.35Z" transform="translate(792.79 1.29)"/><path class="cls-9" d="M-757.61,770.6a1.44,1.44,0,0,1-1-.35,1.23,1.23,0,0,1-.4-1,1.23,1.23,0,0,1,.41-.95,1.39,1.39,0,0,1,1-.37,1.42,1.42,0,0,1,.93.34,1.21,1.21,0,0,1,.41,1,1.24,1.24,0,0,1-.4,1A1.37,1.37,0,0,1-757.61,770.6Zm1.34,2.8v7.84a1.76,1.76,0,0,1-.39,1.23,1.29,1.29,0,0,1-1,.42,1.22,1.22,0,0,1-1-.43,1.81,1.81,0,0,1-.37-1.22v-7.76a1.75,1.75,0,0,1,.37-1.21,1.26,1.26,0,0,1,1-.41,1.31,1.31,0,0,1,1,.41A1.59,1.59,0,0,1-756.27,773.41Z" transform="translate(792.79 1.29)"/><path class="cls-9" d="M-744.38,773.85v7.88a8.21,8.21,0,0,1-.29,2.33,3.69,3.69,0,0,1-.92,1.61,3.86,3.86,0,0,1-1.66.94,9.07,9.07,0,0,1-2.56.31,7.46,7.46,0,0,1-2.51-.39,4.34,4.34,0,0,1-1.7-1,1.85,1.85,0,0,1-.6-1.28,1.05,1.05,0,0,1,.34-.81,1.16,1.16,0,0,1,.82-.31,1.34,1.34,0,0,1,1,.53l.45.54a2.65,2.65,0,0,0,.52.47,2.1,2.1,0,0,0,.68.29,4.15,4.15,0,0,0,.92.09,3.7,3.7,0,0,0,1.63-.29,1.68,1.68,0,0,0,.82-.82,3.33,3.33,0,0,0,.27-1.13c0-.4,0-1,.06-1.94a4.42,4.42,0,0,1-1.45,1.33,3.94,3.94,0,0,1-2,.46,4.11,4.11,0,0,1-2.38-.7,4.45,4.45,0,0,1-1.57-1.95,7.2,7.2,0,0,1-.54-2.89,6.83,6.83,0,0,1,.33-2.21,4.62,4.62,0,0,1,.95-1.66,4.05,4.05,0,0,1,1.42-1,4.5,4.5,0,0,1,1.77-.34,4.27,4.27,0,0,1,2,.44,4.9,4.9,0,0,1,1.57,1.39v-.37a1.58,1.58,0,0,1,.35-1.09,1.15,1.15,0,0,1,.89-.39,1.06,1.06,0,0,1,1,.51A3.37,3.37,0,0,1-744.38,773.85Zm-7.87,3.44a3.76,3.76,0,0,0,.72,2.49,2.34,2.34,0,0,0,1.87.85,2.43,2.43,0,0,0,1.28-.36,2.66,2.66,0,0,0,1-1.09,3.82,3.82,0,0,0,.38-1.77,4.07,4.07,0,0,0-.73-2.58,2.33,2.33,0,0,0-1.93-.93,2.26,2.26,0,0,0-1.86.89A4,4,0,0,0-752.25,777.3Z" transform="translate(792.79 1.29)"/><path class="cls-9" d="M-740.07,773.37v.33a4.75,4.75,0,0,1,1.56-1.39,4.15,4.15,0,0,1,2-.45,3.89,3.89,0,0,1,1.92.47,3,3,0,0,1,1.26,1.32,3.13,3.13,0,0,1,.35,1.07,11.18,11.18,0,0,1,.08,1.47v5.05a1.79,1.79,0,0,1-.37,1.23,1.24,1.24,0,0,1-1,.42,1.25,1.25,0,0,1-1-.43,1.79,1.79,0,0,1-.38-1.22v-4.52a4.49,4.49,0,0,0-.37-2.05,1.51,1.51,0,0,0-1.48-.71,2.19,2.19,0,0,0-1.32.43,2.48,2.48,0,0,0-.87,1.19,8.49,8.49,0,0,0-.2,2.27v3.4a1.77,1.77,0,0,1-.38,1.24,1.29,1.29,0,0,1-1,.41,1.23,1.23,0,0,1-1-.43,1.8,1.8,0,0,1-.38-1.22v-7.84a1.71,1.71,0,0,1,.34-1.16,1.17,1.17,0,0,1,.92-.38,1.26,1.26,0,0,1,.65.17,1.23,1.23,0,0,1,.46.51A1.8,1.8,0,0,1-740.07,773.37Z" transform="translate(792.79 1.29)"/><path class="cls-9" d="M-723.56,778.05h-5.31a3.59,3.59,0,0,0,.37,1.63,2.54,2.54,0,0,0,1,1.06,2.52,2.52,0,0,0,1.33.36,3.27,3.27,0,0,0,.89-.11,3,3,0,0,0,.78-.36,6.18,6.18,0,0,0,.7-.52l.82-.76a.89.89,0,0,1,.6-.18,1,1,0,0,1,.68.23.82.82,0,0,1,.26.65,1.78,1.78,0,0,1-.29.86,3.5,3.5,0,0,1-.87.95,5.09,5.09,0,0,1-1.46.75,6.35,6.35,0,0,1-2,.3,5.42,5.42,0,0,1-4.07-1.49,5.56,5.56,0,0,1-1.45-4,6.71,6.71,0,0,1,.36-2.23,4.92,4.92,0,0,1,1-1.77,4.53,4.53,0,0,1,1.69-1.13,6.08,6.08,0,0,1,2.23-.39,5.26,5.26,0,0,1,2.73.67,4.39,4.39,0,0,1,1.71,1.73,4.59,4.59,0,0,1,.57,2.17,1.36,1.36,0,0,1-.59,1.33A3.66,3.66,0,0,1-723.56,778.05Zm-5.31-1.54h4.92a3.3,3.3,0,0,0-.75-2.08,2.25,2.25,0,0,0-1.72-.69,2.17,2.17,0,0,0-1.67.7A3.48,3.48,0,0,0-728.86,776.51Z" transform="translate(792.79 1.29)"/><path class="cls-9" d="M-712.49,781.35v-.27a6.76,6.76,0,0,1-1.08,1,4,4,0,0,1-1.15.6,4.3,4.3,0,0,1-1.36.21,4,4,0,0,1-1.81-.41,4.2,4.2,0,0,1-1.44-1.18,5.38,5.38,0,0,1-.92-1.8,7.68,7.68,0,0,1-.31-2.24,5.84,5.84,0,0,1,1.24-4,4.14,4.14,0,0,1,3.27-1.42,4.43,4.43,0,0,1,2,.4,5.53,5.53,0,0,1,1.57,1.24v-4a2,2,0,0,1,.33-1.26,1.14,1.14,0,0,1,1-.43,1.18,1.18,0,0,1,.95.39,1.75,1.75,0,0,1,.33,1.16v12a1.65,1.65,0,0,1-.36,1.16,1.2,1.2,0,0,1-.92.39,1.18,1.18,0,0,1-.92-.4A1.66,1.66,0,0,1-712.49,781.35Zm-5.34-4a4.63,4.63,0,0,0,.34,1.88,2.58,2.58,0,0,0,.94,1.17,2.3,2.3,0,0,0,1.3.39,2.38,2.38,0,0,0,1.31-.37,2.55,2.55,0,0,0,.95-1.14,4.61,4.61,0,0,0,.35-1.92,4.49,4.49,0,0,0-.35-1.87,2.82,2.82,0,0,0-1-1.19,2.29,2.29,0,0,0-1.32-.41,2.22,2.22,0,0,0-1.33.42,2.69,2.69,0,0,0-.91,1.21A4.81,4.81,0,0,0-717.83,777.36Z" transform="translate(792.79 1.29)"/><path class="cls-9" d="M-701.4,769.38v4.15a6.23,6.23,0,0,1,1.56-1.22,4.15,4.15,0,0,1,2-.42,4.36,4.36,0,0,1,2.37.64,4.26,4.26,0,0,1,1.58,1.86,6.84,6.84,0,0,1,.56,2.89,7.72,7.72,0,0,1-.31,2.26,5.37,5.37,0,0,1-.91,1.79,4.08,4.08,0,0,1-1.45,1.17,4.24,4.24,0,0,1-1.87.41,4.48,4.48,0,0,1-1.18-.15,3.42,3.42,0,0,1-.94-.39,4.14,4.14,0,0,1-.66-.5c-.18-.17-.42-.43-.72-.78v.27a1.62,1.62,0,0,1-.37,1.16,1.21,1.21,0,0,1-.93.39,1.15,1.15,0,0,1-.92-.39,1.71,1.71,0,0,1-.34-1.16V769.5a2,2,0,0,1,.33-1.25,1.12,1.12,0,0,1,.93-.42,1.19,1.19,0,0,1,1,.4A1.74,1.74,0,0,1-701.4,769.38Zm.13,8.06a3.72,3.72,0,0,0,.74,2.49,2.42,2.42,0,0,0,1.94.87,2.23,2.23,0,0,0,1.76-.89,3.89,3.89,0,0,0,.74-2.55,5,5,0,0,0-.31-1.85,2.68,2.68,0,0,0-.87-1.2,2.16,2.16,0,0,0-1.32-.42,2.36,2.36,0,0,0-1.38.42,2.79,2.79,0,0,0-1,1.22A4.74,4.74,0,0,0-701.27,777.44Z" transform="translate(792.79 1.29)"/><path class="cls-9" d="M-689.83,783.24l.25-.61-3.34-8.41a3.17,3.17,0,0,1-.31-1.05,1.23,1.23,0,0,1,.18-.65,1.32,1.32,0,0,1,.49-.48,1.29,1.29,0,0,1,.65-.18,1.07,1.07,0,0,1,.88.38,3.37,3.37,0,0,1,.53,1.07l2.3,6.68,2.18-6.21a10.44,10.44,0,0,1,.47-1.18,1.38,1.38,0,0,1,.44-.58,1.25,1.25,0,0,1,.66-.15,1.15,1.15,0,0,1,.59.17,1.16,1.16,0,0,1,.44.44,1.2,1.2,0,0,1,.15.58c0,.13-.07.3-.13.54a7.08,7.08,0,0,1-.22.71l-3.54,9.27a10.77,10.77,0,0,1-.89,1.92,2.93,2.93,0,0,1-1.16,1.07,4.25,4.25,0,0,1-1.94.37,4.73,4.73,0,0,1-1.79-.26,1,1,0,0,1-.6-.95.92.92,0,0,1,.29-.72,1.22,1.22,0,0,1,.84-.26,1.5,1.5,0,0,1,.43.06,2.11,2.11,0,0,0,.45.06,1.58,1.58,0,0,0,.74-.14,1.25,1.25,0,0,0,.48-.48A7.35,7.35,0,0,0-689.83,783.24Z" transform="translate(792.79 1.29)"/><path class="cls-9" d="M-650.52,772.1h.65v-.81a5.23,5.23,0,0,1,.32-2,2.05,2.05,0,0,1,1.1-1.09,5.31,5.31,0,0,1,2.11-.34c1.59,0,2.38.39,2.38,1.17a.91.91,0,0,1-.25.64.77.77,0,0,1-.58.27,4,4,0,0,1-.55-.06,5.28,5.28,0,0,0-.65-.06,1,1,0,0,0-.95.44,3,3,0,0,0-.2,1.24v.64h.66c1,0,1.55.31,1.55.94,0,.44-.13.72-.41.84a2.89,2.89,0,0,1-1.14.18h-.66v7.19a1.73,1.73,0,0,1-.39,1.22,1.25,1.25,0,0,1-1,.43,1.24,1.24,0,0,1-1-.43,1.77,1.77,0,0,1-.38-1.22v-7.19h-.75a1.41,1.41,0,0,1-.94-.27.88.88,0,0,1-.33-.71c0-.65.46-1,1.37-1" transform="translate(792.79 1.29)"/><path class="cls-9" d="M-641.63,779v2.27a1.78,1.78,0,0,1-.39,1.24,1.28,1.28,0,0,1-1,.41,1.23,1.23,0,0,1-1-.42,1.79,1.79,0,0,1-.38-1.23v-7.56q0-1.83,1.32-1.83a1.11,1.11,0,0,1,1,.43,2.39,2.39,0,0,1,.33,1.27,4.65,4.65,0,0,1,1-1.27,2.09,2.09,0,0,1,1.37-.43,3.49,3.49,0,0,1,1.66.43,1.28,1.28,0,0,1,.81,1.14,1.08,1.08,0,0,1-.34.82,1.06,1.06,0,0,1-.74.33,3.5,3.5,0,0,1-.73-.19,3.51,3.51,0,0,0-1-.18,1.51,1.51,0,0,0-1,.31,2.06,2.06,0,0,0-.59.93,6.85,6.85,0,0,0-.29,1.47c-.05.57-.08,1.26-.08,2.08" transform="translate(792.79 1.29)"/><path class="cls-9" d="M-629.15,778h-5.31a3.62,3.62,0,0,0,.37,1.63,2.61,2.61,0,0,0,1,1.06,2.52,2.52,0,0,0,1.33.36,3,3,0,0,0,.89-.12,2.79,2.79,0,0,0,.78-.36,5.58,5.58,0,0,0,.7-.52l.83-.75a.89.89,0,0,1,.59-.18,1,1,0,0,1,.68.23.81.81,0,0,1,.25.65,1.78,1.78,0,0,1-.28.86,3.52,3.52,0,0,1-.87.95,5.07,5.07,0,0,1-1.46.75,6.26,6.26,0,0,1-2,.3,5.41,5.41,0,0,1-4.07-1.49,5.57,5.57,0,0,1-1.46-4,6.67,6.67,0,0,1,.36-2.23,4.78,4.78,0,0,1,1-1.77,4.45,4.45,0,0,1,1.69-1.13,6.12,6.12,0,0,1,2.23-.39,5.23,5.23,0,0,1,2.73.68,4.34,4.34,0,0,1,1.71,1.73,4.56,4.56,0,0,1,.57,2.17,1.36,1.36,0,0,1-.59,1.33,3.65,3.65,0,0,1-1.65.3m-5.31-1.54h4.92a3.27,3.27,0,0,0-.75-2.08,2.24,2.24,0,0,0-1.72-.69,2.16,2.16,0,0,0-1.67.7,3.45,3.45,0,0,0-.79,2.07" transform="translate(792.79 1.29)"/><path class="cls-9" d="M-617.86,778h-5.31a3.62,3.62,0,0,0,.37,1.63,2.61,2.61,0,0,0,1,1.06,2.53,2.53,0,0,0,1.33.36,3,3,0,0,0,.88-.12,2.82,2.82,0,0,0,.79-.36,5.57,5.57,0,0,0,.7-.52l.82-.75a.9.9,0,0,1,.6-.18,1,1,0,0,1,.68.23.82.82,0,0,1,.25.65,1.73,1.73,0,0,1-.28.86,3.28,3.28,0,0,1-.87.95,5,5,0,0,1-1.46.75,6.28,6.28,0,0,1-2,.3,5.43,5.43,0,0,1-4.07-1.49,5.58,5.58,0,0,1-1.45-4,6.67,6.67,0,0,1,.37-2.23,4.88,4.88,0,0,1,1-1.77,4.45,4.45,0,0,1,1.69-1.13,6.1,6.1,0,0,1,2.23-.39,5.3,5.3,0,0,1,2.74.68,4.36,4.36,0,0,1,1.7,1.73,4.6,4.6,0,0,1,.57,2.17,1.36,1.36,0,0,1-.59,1.33,3.67,3.67,0,0,1-1.65.3m-5.31-1.54h4.92a3.28,3.28,0,0,0-.75-2.08,2.24,2.24,0,0,0-1.72-.69,2.16,2.16,0,0,0-1.67.7,3.46,3.46,0,0,0-.79,2.07" transform="translate(792.79 1.29)"/><path class="cls-9" d="M-611.91,773.39v.32a5.38,5.38,0,0,1,1.6-1.39,3.86,3.86,0,0,1,1.87-.45,4.36,4.36,0,0,1,2.31.65,4.47,4.47,0,0,1,1.66,1.89,6.58,6.58,0,0,1,.62,2.95,7.16,7.16,0,0,1-.35,2.3,5.12,5.12,0,0,1-1,1.76,4.25,4.25,0,0,1-1.45,1.1,4.4,4.4,0,0,1-1.81.38,3.77,3.77,0,0,1-2-.47,5.65,5.65,0,0,1-1.51-1.37v4.07c0,1.19-.44,1.79-1.3,1.79a1.05,1.05,0,0,1-1-.46,3,3,0,0,1-.25-1.35V773.4a1.71,1.71,0,0,1,.34-1.16,1.19,1.19,0,0,1,.93-.38,1.22,1.22,0,0,1,.94.39,1.6,1.6,0,0,1,.36,1.13m5.32,3.94a4.72,4.72,0,0,0-.33-1.84,2.69,2.69,0,0,0-.91-1.18,2.18,2.18,0,0,0-1.29-.42,2.43,2.43,0,0,0-1.89.88,3.87,3.87,0,0,0-.77,2.61,3.77,3.77,0,0,0,.77,2.52,2.38,2.38,0,0,0,1.9.9,2.23,2.23,0,0,0,1.26-.39,2.69,2.69,0,0,0,.92-1.18,4.7,4.7,0,0,0,.35-1.9" transform="translate(792.79 1.29)"/><path class="cls-9" d="M-601.13,770.6a1.42,1.42,0,0,1-1-.35,1.22,1.22,0,0,1-.4-1,1.22,1.22,0,0,1,.41-1,1.39,1.39,0,0,1,1-.37,1.42,1.42,0,0,1,.94.34,1.22,1.22,0,0,1,.41,1,1.25,1.25,0,0,1-.39,1,1.4,1.4,0,0,1-1,.35m1.35,2.8v7.85a1.74,1.74,0,0,1-.39,1.23,1.29,1.29,0,0,1-1,.42,1.24,1.24,0,0,1-1-.43,1.84,1.84,0,0,1-.37-1.22v-7.78a1.76,1.76,0,0,1,.37-1.21,1.25,1.25,0,0,1,1-.41,1.29,1.29,0,0,1,1,.41,1.58,1.58,0,0,1,.39,1.13" transform="translate(792.79 1.29)"/><path class="cls-9" d="M-591,781.66l-2.39-3.94-1.47,1.39v2.16a1.64,1.64,0,0,1-.42,1.21,1.27,1.27,0,0,1-.95.43,1.21,1.21,0,0,1-1-.42,1.84,1.84,0,0,1-.36-1.23V769.67a2.35,2.35,0,0,1,.34-1.37,1.17,1.17,0,0,1,1-.47,1.25,1.25,0,0,1,1,.43,1.88,1.88,0,0,1,.37,1.26v6.59l3.05-3.21a7.67,7.67,0,0,1,.87-.81,1.2,1.2,0,0,1,.72-.22,1.19,1.19,0,0,1,.85.32,1.08,1.08,0,0,1,.34.81c0,.4-.37.93-1.11,1.59l-1.44,1.32,2.79,4.38c.2.33.35.57.44.74a1.07,1.07,0,0,1,.14.48,1.43,1.43,0,0,1-.36,1,1.22,1.22,0,0,1-.93.37,1,1,0,0,1-.77-.27,6.62,6.62,0,0,1-.73-1" transform="translate(792.79 1.29)"/><path class="cls-9" d="M-585.14,782.9a1.55,1.55,0,0,1-1.06-.4,1.41,1.41,0,0,1-.45-1.12,1.44,1.44,0,0,1,.43-1,1.41,1.41,0,0,1,1.05-.44,1.49,1.49,0,0,1,1.07.43,1.43,1.43,0,0,1,.44,1,1.42,1.42,0,0,1-.44,1.11,1.5,1.5,0,0,1-1,.41" transform="translate(792.79 1.29)"/><path class="cls-9" d="M-571.64,779.54a2.33,2.33,0,0,1-.3,1.08,3.69,3.69,0,0,1-.93,1.1,4.78,4.78,0,0,1-1.56.84,6.69,6.69,0,0,1-2.13.32,5.22,5.22,0,0,1-3.93-1.47,5.47,5.47,0,0,1-1.41-3.94,6.45,6.45,0,0,1,.65-3,4.59,4.59,0,0,1,1.87-2,5.77,5.77,0,0,1,2.92-.7,5.87,5.87,0,0,1,1.94.31,5.17,5.17,0,0,1,1.49.79,4,4,0,0,1,.93,1,2.06,2.06,0,0,1,.32,1,1.09,1.09,0,0,1-.36.82,1.26,1.26,0,0,1-.88.34.91.91,0,0,1-.57-.17,2.68,2.68,0,0,1-.5-.57,4,4,0,0,0-1-1.13,2.31,2.31,0,0,0-1.37-.38,2.35,2.35,0,0,0-1.94.94,4.06,4.06,0,0,0-.74,2.57,5,5,0,0,0,.19,1.41,3.12,3.12,0,0,0,.54,1.09,2.4,2.4,0,0,0,.87.69,2.6,2.6,0,0,0,1.11.23,2.52,2.52,0,0,0,1.4-.38,3.27,3.27,0,0,0,1-1.15,2.74,2.74,0,0,1,.53-.72,1,1,0,0,1,.71-.26,1,1,0,0,1,.82.38,1.2,1.2,0,0,1,.33.8" transform="translate(792.79 1.29)"/><path class="cls-9" d="M-559.92,777.38a6.63,6.63,0,0,1-.37,2.24,5,5,0,0,1-1.1,1.76,4.85,4.85,0,0,1-1.71,1.13,6.12,6.12,0,0,1-2.24.39,5.84,5.84,0,0,1-2.22-.4,4.92,4.92,0,0,1-1.7-1.13,5.07,5.07,0,0,1-1.1-1.76,6.63,6.63,0,0,1-.37-2.23,6.66,6.66,0,0,1,.38-2.26,4.89,4.89,0,0,1,1.09-1.75,4.81,4.81,0,0,1,1.71-1.12,6.08,6.08,0,0,1,2.22-.39,6,6,0,0,1,2.24.4,4.89,4.89,0,0,1,1.72,1.13,5,5,0,0,1,1.09,1.75,6.64,6.64,0,0,1,.37,2.24m-2.72,0a4.09,4.09,0,0,0-.73-2.59,2.35,2.35,0,0,0-2-.93,2.45,2.45,0,0,0-1.41.41,2.59,2.59,0,0,0-.93,1.22,5,5,0,0,0-.33,1.88,4.9,4.9,0,0,0,.32,1.86,2.67,2.67,0,0,0,.93,1.22,2.43,2.43,0,0,0,1.42.42,2.36,2.36,0,0,0,2-.93,4.07,4.07,0,0,0,.73-2.57" transform="translate(792.79 1.29)"/><path class="cls-9" d="M-549.57,777.58v3.61a1.86,1.86,0,0,1-.39,1.29,1.32,1.32,0,0,1-1,.43,1.26,1.26,0,0,1-1-.43,1.87,1.87,0,0,1-.39-1.29v-4.33a15.1,15.1,0,0,0-.06-1.59,1.76,1.76,0,0,0-.38-.92,1.2,1.2,0,0,0-1-.37,1.73,1.73,0,0,0-1.76.92,6.49,6.49,0,0,0-.42,2.62v3.67a1.92,1.92,0,0,1-.38,1.28,1.31,1.31,0,0,1-1,.43,1.31,1.31,0,0,1-1-.43,1.86,1.86,0,0,1-.39-1.28v-7.77a1.69,1.69,0,0,1,.35-1.16,1.18,1.18,0,0,1,.93-.4,1.3,1.3,0,0,1,.93.37,1.41,1.41,0,0,1,.37,1v.26a4.77,4.77,0,0,1,1.51-1.24,3.91,3.91,0,0,1,1.8-.4,3.56,3.56,0,0,1,1.76.41,3.25,3.25,0,0,1,1.21,1.23,4.78,4.78,0,0,1,1.47-1.24,3.76,3.76,0,0,1,1.74-.4,4,4,0,0,1,1.92.44,2.8,2.8,0,0,1,1.2,1.25,5.82,5.82,0,0,1,.35,2.32v5.3a1.87,1.87,0,0,1-.38,1.29,1.32,1.32,0,0,1-1,.43,1.31,1.31,0,0,1-1-.43,1.86,1.86,0,0,1-.39-1.28v-4.57a10.24,10.24,0,0,0-.07-1.4,1.61,1.61,0,0,0-.4-.88,1.3,1.3,0,0,0-1-.36,1.84,1.84,0,0,0-1,.32,2.19,2.19,0,0,0-.75.85,6.93,6.93,0,0,0-.3,2.43" transform="translate(792.79 1.29)"/><path class="cls-9" d="M-675.92,776.73a.06.06,0,0,1,0,0A.06.06,0,0,0-675.92,776.73Z" transform="translate(792.79 1.29)"/><path class="cls-9" d="M-675.78,777.59h0c-.05-.25-.09-.49-.12-.73C-675.87,777.1-675.83,777.35-675.78,777.59Z" transform="translate(792.79 1.29)"/><path class="cls-9" d="M-674.88,780.11l0,0Z" transform="translate(792.79 1.29)"/><path class="cls-9" d="M-675,779.94l-.07-.14Z" transform="translate(792.79 1.29)"/><path class="cls-9" d="M-675.53,778.56a9.26,9.26,0,0,0,.48,1.21,9.33,9.33,0,0,1-.47-1.21Z" transform="translate(792.79 1.29)"/><path class="cls-9" d="M-665.41,766.32a7.61,7.61,0,0,1,1.36.12l.13-.8a8.26,8.26,0,0,0-2.84-.25l-.13-.44a1.1,1.1,0,0,0,.88-1.08,1.11,1.11,0,0,0-1.11-1.1,1.1,1.1,0,0,0-1.11,1.1,1.1,1.1,0,0,0,.88,1.08l.14.48a11.19,11.19,0,0,0-3.07.9l.24.74a13.18,13.18,0,0,1,2.75-.64A17.89,17.89,0,0,1-665.41,766.32Z" transform="translate(792.79 1.29)"/><path class="cls-9" d="M-674.9,770.36h0l.12-.15-.33-.24-.51-.37a7.55,7.55,0,0,0-1.47,2.14l-.09-.13a1,1,0,0,0-.79-.31h0a.65.65,0,0,1-.45-.15.71.71,0,0,0,.15-.43.7.7,0,0,0-.7-.7.7.7,0,0,0-.7.7.7.7,0,0,0,.7.7l.17,0a1.07,1.07,0,0,0,.85.35.58.58,0,0,1,.46.16.77.77,0,0,1,.17.45h0a7.62,7.62,0,0,0-.32,2.79l1.11,0a8.47,8.47,0,0,1,.39-2.33A10.86,10.86,0,0,1-674.9,770.36Z" transform="translate(792.79 1.29)"/><path class="cls-9" d="M-655.78,767.25a.7.7,0,0,0-.7.7.65.65,0,0,0,0,.17,1.09,1.09,0,0,0-.35.85.57.57,0,0,1-.16.46.71.71,0,0,1-.31.15,8.52,8.52,0,0,0-1.84-1.86l-.79.85a12.17,12.17,0,0,1,1.81,2.08,14.54,14.54,0,0,1,1.19,2.11l1.07-.51A16.4,16.4,0,0,0-657,770a1,1,0,0,0,.35-.2,1,1,0,0,0,.31-.79.66.66,0,0,1,.16-.46.71.71,0,0,0,.43.15.7.7,0,0,0,.7-.7A.7.7,0,0,0-655.78,767.25Z" transform="translate(792.79 1.29)"/><path class="cls-9" d="M-658.56,776.88a23.88,23.88,0,0,1-7.1,2.12,26.53,26.53,0,0,1-3.59.24A30,30,0,0,1-673,779c-1.13-.14-2-.32-2.54-.44a9.33,9.33,0,0,0,.47,1.21v0l.07.14.07.13,0,0a8,8,0,0,0,1.13,1.62,5.92,5.92,0,0,0,3.06,1.91h0a12.25,12.25,0,0,0,3.45.44,15.13,15.13,0,0,0,5.94-1.22,9.7,9.7,0,0,0,3.41-2.79,7.81,7.81,0,0,0,1.1-2.4,6.35,6.35,0,0,0,.15-1.91A16.59,16.59,0,0,1-658.56,776.88Z" transform="translate(792.79 1.29)"/><path class="cls-9" d="M-674.43,770.71a10.63,10.63,0,0,0-1.19,2.36,8.86,8.86,0,0,0-.36,2.58h0a9,9,0,0,0,.06,1.06.06.06,0,0,0,0,0s0,.09,0,.13c0,.24.07.49.12.73a28.09,28.09,0,0,0,10,.53,22.89,22.89,0,0,0,6.8-2,15.26,15.26,0,0,0,2.22-1.3,14.6,14.6,0,0,0-1.82-3.82c-2.1-3-4.37-3.77-5.53-4a7.36,7.36,0,0,0-1.3-.11,17.61,17.61,0,0,0-1.82.12,12.53,12.53,0,0,0-2.65.63,10.2,10.2,0,0,0-3.69,2.14l0,0A7.31,7.31,0,0,0-674.43,770.71Zm12.84-.7a1.83,1.83,0,0,1,1.82,1.82,1.83,1.83,0,0,1-1.82,1.83,1.83,1.83,0,0,1-1.82-1.83A1.83,1.83,0,0,1-661.58,770Zm-8.63-.07a3,3,0,0,1,2.95,2.95,3,3,0,0,1-2.95,2.95,3,3,0,0,1-2.95-2.95A3,3,0,0,1-670.21,769.94Z" transform="translate(792.79 1.29)"/></g></g></svg>