<?xml version="1.0" encoding="utf-8"?>
<!-- Generator: Adobe Illustrator 21.0.2, SVG Export Plug-In . SVG Version: 6.00 Build 0)  -->
<svg version="1.1" id="Layer_1" xmlns="http://www.w3.org/2000/svg" xmlns:xlink="http://www.w3.org/1999/xlink" x="0px" y="0px"
	 viewBox="0 0 499.2 499.2" style="enable-background:new 0 0 499.2 499.2;" xml:space="preserve">
<style type="text/css">
	.st0{display:none;fill:#FF0606;}
	.st1{opacity:0.76;fill:#F9F8F7;stroke:#EDE5DD;stroke-miterlimit:10;}
	.st2{fill:none;}
	.st3{font-family:'HannotateSC-W5-GBpc-EUC-H';}
	.st4{font-size:26.9867px;}
</style>
<path class="st0" d="M209.1,64h81.6c41.6,0,78.4,30.4,78.4,72v184.8c0,41.6-36.8,78.4-78.4,78.4h-86.4c-41.6,0-75.2-33.6-75.2-75.2"
	/>
<g>
	<path class="st1" d="M262.3,170.3H62.2c-6.6,0-12-5.4-12-12v-22.5c0-6.6,5.4-12,12-12h200.1c6.6,0,12,5.4,12,12v22.5
		C274.3,164.9,268.9,170.3,262.3,170.3z"/>
	<rect x="67.9" y="138.2" class="st2" width="256.4" height="36.5"/>
	<text transform="matrix(1 0 0 1 67.9033 156.6809)" class="st3 st4">Click First Star</text>
</g>
</svg>
