<?xml version="1.0" encoding="utf-8"?>
<!-- Generator: Adobe Illustrator 21.0.2, SVG Export Plug-In . SVG Version: 6.00 Build 0)  -->
<svg version="1.1" id="Layer_1" xmlns="http://www.w3.org/2000/svg" xmlns:xlink="http://www.w3.org/1999/xlink" x="0px" y="0px"
	 viewBox="0 0 499.2 499.2" style="enable-background:new 0 0 499.2 499.2;" xml:space="preserve">
<style type="text/css">
	.st0{display:none;fill:#FF0606;}
	.st1{opacity:0.76;fill:#F9F8F7;stroke:#EDE5DD;stroke-miterlimit:10;enable-background:new    ;}
	.st2{fill:none;}
	.st3{font-family:'HannotateSC-W5-GBpc-EUC-H';}
	.st4{font-size:26.8274px;}
	.st5{font-size:18px;}
</style>
<path class="st0" d="M209.1,64h81.6c41.6,0,78.4,30.4,78.4,72v184.8c0,41.6-36.8,78.4-78.4,78.4h-86.4c-41.6,0-75.2-33.6-75.2-75.2"
	/>
<path class="st1" d="M457.4,348.4H62.8c-6.9,0-12.6-5.8-12.6-12.8v-199c0-7,5.7-12.8,12.6-12.8h394.5c6.9,0,12.6,5.8,12.6,12.8v199
	C470,342.7,464.3,348.4,457.4,348.4z"/>
<rect x="86.6" y="156.5" class="st2" width="357.5" height="218.9"/>
<rect x="78" y="149" class="st2" width="370" height="191"/>
<text transform="matrix(1.0401 0 0 1 60.7279 169.4998)"><tspan x="0" y="0" class="st3 st4">The Lantern Festival is the last </tspan><tspan x="0" y="32.2" class="st3 st4">day (traditionally) of China&apos;s </tspan><tspan x="0" y="64.4" class="st3 st4">most important festival, Spring </tspan><tspan x="0" y="96.6" class="st3 st4">Festival.</tspan><tspan x="0" y="128.8" class="st3 st4"> </tspan></text>
<text transform="matrix(1 0 0 1 280.7695 321)" class="st3 st5"> (Click second lantern)</text>
</svg>
